999
dxfrw 0.6.3
  0
SECTION
  2
HEADER
  9
$ACADVER
  1
AC1021
  9
$DWGCODEPAGE
  3
ANSI_1252
  9
$INSBASE
 10
0
 20
0
 30
0
  9
$EXTMIN
 10
-231.2500000000001
 20
0
 30
0
  9
$EXTMAX
 10
3060
 20
1435.591015101425
 30
0
  9
$LIMMIN
 10
0
 20
0
  9
$LIMMAX
 10
420
 20
297
  9
$ORTHOMODE
 70
    0
  9
$REGENMODE
 70
    1
  9
$FILLMODE
 70
    1
  9
$QTEXTMODE
 70
    0
  9
$MIRRTEXT
 70
    0
  9
$LTSCALE
 40
1
  9
$ATTMODE
 70
    0
  9
$TEXTSIZE
 40
2.5
  9
$TRACEWID
 40
15.68
  9
$TEXTSTYLE
  7
STANDARD
  9
$CLAYER
  8
Cotas
  9
$CELTYPE
  6
BYLAYER
  9
$CECOLOR
 62
  256
  9
$CELTSCALE
 40
1
  9
$DISPSILH
 70
    0
  9
$DIMSCALE
 40
10
  9
$DIMASZ
 40
2.5
  9
$DIMEXO
 40
0.625
  9
$DIMDLI
 40
3.75
  9
$DIMRND
 40
0
  9
$DIMDLE
 40
0
  9
$DIMEXE
 40
1.25
  9
$DIMTP
 40
0
  9
$DIMTM
 40
0
  9
$DIMTXT
 40
2.5
  9
$DIMCEN
 40
2.5
  9
$DIMTSZ
 40
0
  9
$DIMTOL
 70
    0
  9
$DIMLIM
 70
    0
  9
$DIMTIH
 70
    0
  9
$DIMTOH
 70
    0
  9
$DIMSE1
 70
    0
  9
$DIMSE2
 70
    0
  9
$DIMTAD
 70
    1
  9
$DIMZIN
 70
    1
  9
$DIMBLK
  1

  9
$DIMASO
 70
    1
  9
$DIMSHO
 70
    1
  9
$DIMPOST
  1

  9
$DIMAPOST
  1

  9
$DIMALT
 70
    0
  9
$DIMALTD
 70
    3
  9
$DIMALTF
 40
0.03937
  9
$DIMLFAC
 40
1
  9
$DIMTOFL
 70
    1
  9
$DIMTVP
 40
0
  9
$DIMTIX
 70
    0
  9
$DIMSOXD
 70
    0
  9
$DIMSAH
 70
    0
  9
$DIMBLK1
  1

  9
$DIMBLK2
  1

  9
$DIMSTYLE
  2
STANDARD
  9
$DIMCLRD
 70
    0
  9
$DIMCLRE
 70
    0
  9
$DIMCLRT
 70
    0
  9
$DIMTFAC
 40
1
  9
$DIMGAP
 40
0.625
  9
$DIMJUST
 70
    0
  9
$DIMSD1
 70
    0
  9
$DIMSD2
 70
    0
  9
$DIMTOLJ
 70
    0
  9
$DIMTZIN
 70
    8
  9
$DIMALTZ
 70
    0
  9
$DIMALTTZ
 70
    0
  9
$DIMUPT
 70
    0
  9
$DIMDEC
 70
    0
  9
$DIMTDEC
 70
    2
  9
$DIMALTU
 70
    2
  9
$DIMALTTD
 70
    3
  9
$DIMTXSTY
  7
standard
  9
$DIMAUNIT
 70
    0
  9
$DIMADEC
 70
    0
  9
$DIMALTRND
 40
0
  9
$DIMAZIN
 70
    0
  9
$DIMDSEP
 70
    0
  9
$DIMATFIT
 70
    3
  9
$DIMFRAC
 70
    0
  9
$DIMLDRBLK
  1
STANDARD
  9
$DIMLUNIT
 70
    2
  9
$DIMLWD
 70
   -2
  9
$DIMLWE
 70
   -2
  9
$DIMTMOVE
 70
    0
  9
$DIMFXL
 40
1
  9
$DIMFXLON
 70
    0
  9
$DIMJOGANG
 40
0.7854
  9
$DIMTFILL
 70
    0
  9
$DIMTFILLCLR
 70
    0
  9
$DIMARCSYM
 70
    0
  9
$DIMLTYPE
  6

  9
$DIMLTEX1
  6

  9
$DIMLTEX2
  6

  9
$LUNITS
 70
    2
  9
$LUPREC
 70
    4
  9
$SKETCHINC
 40
1
  9
$FILLETRAD
 40
0
  9
$AUNITS
 70
    0
  9
$AUPREC
 70
    2
  9
$MENU
  1
.
  9
$ELEVATION
 40
0
  9
$PELEVATION
 40
0
  9
$THICKNESS
 40
0
  9
$LIMCHECK
 70
    0
  9
$CHAMFERA
 40
0
  9
$CHAMFERB
 40
0
  9
$CHAMFERC
 40
0
  9
$CHAMFERD
 40
0
  9
$SKPOLY
 70
    0
  9
$USRTIMER
 70
    1
  9
$ANGBASE
 50
0
  9
$ANGDIR
 70
    0
  9
$PDMODE
 70
   34
  9
$PDSIZE
 40
0
  9
$PLINEWID
 40
0
  9
$SPLFRAME
 70
    0
  9
$SPLINETYPE
 70
    2
  9
$SPLINESEGS
 70
    8
  9
$HANDSEED
  5
20000
  9
$SURFTAB1
 70
    6
  9
$SURFTAB2
 70
    6
  9
$SURFTYPE
 70
    6
  9
$SURFU
 70
    6
  9
$SURFV
 70
    6
  9
$UCSBASE
  2

  9
$UCSNAME
  2

  9
$UCSORG
 10
0
 20
0
 30
0
  9
$UCSXDIR
 10
1
 20
0
 30
0
  9
$UCSYDIR
 10
0
 20
1
 30
0
  9
$UCSORTHOREF
  2

  9
$UCSORTHOVIEW
 70
    0
  9
$UCSORGTOP
 10
0
 20
0
 30
0
  9
$UCSORGBOTTOM
 10
0
 20
0
 30
0
  9
$UCSORGLEFT
 10
0
 20
0
 30
0
  9
$UCSORGRIGHT
 10
0
 20
0
 30
0
  9
$UCSORGFRONT
 10
0
 20
0
 30
0
  9
$UCSORGBACK
 10
0
 20
0
 30
0
  9
$PUCSBASE
  2

  9
$PUCSNAME
  2

  9
$PUCSORG
 10
0
 20
0
 30
0
  9
$PUCSXDIR
 10
1
 20
0
 30
0
  9
$PUCSYDIR
 10
0
 20
1
 30
0
  9
$PUCSORTHOREF
  2

  9
$PUCSORTHOVIEW
 70
    0
  9
$PUCSORGTOP
 10
0
 20
0
 30
0
  9
$PUCSORGBOTTOM
 10
0
 20
0
 30
0
  9
$PUCSORGLEFT
 10
0
 20
0
 30
0
  9
$PUCSORGRIGHT
 10
0
 20
0
 30
0
  9
$PUCSORGFRONT
 10
0
 20
0
 30
0
  9
$PUCSORGBACK
 10
0
 20
0
 30
0
  9
$USERI1
 70
    0
  9
$USERI2
 70
    0
  9
$USERI3
 70
    0
  9
$USERI4
 70
    0
  9
$USERI5
 70
    0
  9
$USERR1
 40
0
  9
$USERR2
 40
0
  9
$USERR3
 40
0
  9
$USERR4
 40
0
  9
$USERR5
 40
0
  9
$WORLDVIEW
 70
    1
  9
$SHADEDGE
 70
    3
  9
$SHADEDIF
 70
   70
  9
$TILEMODE
 70
    1
  9
$MAXACTVP
 70
   64
  9
$PINSBASE
 10
31.61127990884923
 20
45.67895843409228
 30
0
  9
$PLIMCHECK
 70
    0
  9
$PEXTMIN
 10
0
 20
0
 30
0
  9
$PEXTMAX
 10
0
 20
0
 30
0
  9
$GRIDMODE
 70
    1
  9
$SNAPSTYLE
 70
    0
  9
$GRIDUNIT
 10
0
 20
0
  9
$PLIMMIN
 10
0
 20
0
  9
$PLIMMAX
 10
297
 20
210
  9
$UNITMODE
 70
    0
  9
$VISRETAIN
 70
    1
  9
$PLINEGEN
 70
    0
  9
$PSLTSCALE
 70
    1
  9
$TREEDEPTH
 70
 3020
  9
$CMLSTYLE
  2
Standard
  9
$CMLJUST
 70
    0
  9
$CMLSCALE
 40
20
  9
$PROXYGRAPHICS
 70
    1
  9
$MEASUREMENT
 70
    1
  9
$CELWEIGHT
370
   -1
  9
$ENDCAPS
280
    0
  9
$JOINSTYLE
280
    0
  9
$LWDISPLAY
290
    0
  9
$INSUNITS
 70
    4
  9
$HYPERLINKBASE
  1

  9
$STYLESHEET
  1

  9
$XEDIT
290
    1
  9
$CEPSNTYPE
380
    0
  9
$PSTYLEMODE
290
    1
  9
$EXTNAMES
290
    1
  9
$PSVPSCALE
 40
0.08264337257880744
  9
$OLESTARTUP
290
    0
  9
$SORTENTS
280
  127
  9
$INDEXCTL
280
    0
  9
$HIDETEXT
280
    1
  9
$XCLIPFRAME
290
    0
  9
$HALOGAP
280
    0
  9
$OBSCOLOR
 70
  257
  9
$OBSLTYPE
280
    0
  9
$INTERSECTIONDISPLAY
280
    0
  9
$INTERSECTIONCOLOR
 70
  257
  9
$DIMASSOC
280
    1
  9
$PROJECTNAME
  1

  9
$CAMERADISPLAY
290
    0
  9
$LENSLENGTH
 40
50
  9
$CAMERAHEIGHT
 40
0
  9
$STEPSPERSEC
 40
2
  9
$STEPSIZE
 40
50
  9
$3DDWFPREC
 40
2
  9
$PSOLWIDTH
 40
5
  9
$PSOLHEIGHT
 40
80
  9
$LOFTANG1
 40
1.570796326794897
  9
$LOFTANG2
 40
1.570796326794897
  9
$LOFTMAG1
 40
0
  9
$LOFTMAG2
 40
0
  9
$LOFTPARAM
 70
    7
  9
$LOFTNORMALS
280
    1
  9
$LATITUDE
 40
1
  9
$LONGITUDE
 40
1
  9
$NORTHDIRECTION
 40
0
  9
$TIMEZONE
 70
-8000
  9
$LIGHTGLYPHDISPLAY
280
    1
  9
$TILEMODELIGHTSYNCH
280
    1
  9
$SOLIDHIST
280
    1
  9
$SHOWHIST
280
    1
  9
$DWFFRAME
280
    2
  9
$DGNFRAME
280
    0
  9
$REALWORLDSCALE
290
    1
  9
$INTERFERECOLOR
 62
    1
  9
$CSHADOW
280
    0
  9
$SHADOWPLANELOCATION
 40
0
  0
ENDSEC
  0
SECTION
  2
CLASSES
  0
ENDSEC
  0
SECTION
  2
TABLES
  0
TABLE
  2
VPORT
  5
8
330
0
100
AcDbSymbolTable
 70
    1
  0
VPORT
  5
31
330
2
100
AcDbSymbolTableRecord
100
AcDbViewportTableRecord
  2
*ACTIVE
 70
    0
 10
0
 20
0
 11
1
 21
1
 12
2084.863807852851
 22
945.4984494454621
 13
0
 23
0
 14
10
 24
10
 15
10
 25
10
 16
0
 26
0
 36
1
 17
0
 27
0
 37
0
 40
1973.628696153385
 41
2.508856682769726
 42
50
 43
0
 44
0
 50
0
 51
0
 71
    0
 72
  100
 73
    1
 74
    3
 75
    0
 76
    1
 77
    0
 78
    0
281
    0
 65
    1
110
0
120
0
130
0
111
1
121
0
131
0
112
0
122
1
132
0
 79
    0
146
0
348
10020
 60
    7
 61
    5
292
1
282
    1
141
0
142
0
 63
  250
421
3358443
  0
ENDTAB
  0
TABLE
  2
LTYPE
  5
5
330
0
100
AcDbSymbolTable
 70
    4
  0
LTYPE
  5
14
330
5
100
AcDbSymbolTableRecord
100
AcDbLinetypeTableRecord
  2
ByBlock
 70
    0
  3

 72
   65
 73
    0
 40
0
  0
LTYPE
  5
15
330
5
100
AcDbSymbolTableRecord
100
AcDbLinetypeTableRecord
  2
ByLayer
 70
    0
  3

 72
   65
 73
    0
 40
0
  0
LTYPE
  5
16
330
5
100
AcDbSymbolTableRecord
100
AcDbLinetypeTableRecord
  2
Continuous
 70
    0
  3
Solid line
 72
   65
 73
    0
 40
0
  0
LTYPE
  5
32
330
5
100
AcDbSymbolTableRecord
100
AcDbLinetypeTableRecord
  2
DOT
 70
    0
  3
Dot . . . . . . . . . . . . . . . . . . . . . .
 72
   65
 73
    2
 40
6.35
 49
0
 74
    0
 49
-6.35
 74
    0
  0
LTYPE
  5
33
330
5
100
AcDbSymbolTableRecord
100
AcDbLinetypeTableRecord
  2
DOTTINY
 70
    0
  3
Dot (.15x) .....................................
 72
   65
 73
    2
 40
0.9525
 49
0
 74
    0
 49
-0.9525
 74
    0
  0
LTYPE
  5
34
330
5
100
AcDbSymbolTableRecord
100
AcDbLinetypeTableRecord
  2
DOT2
 70
    0
  3
Dot (.5x) .....................................
 72
   65
 73
    2
 40
3.175
 49
0
 74
    0
 49
-3.175
 74
    0
  0
LTYPE
  5
35
330
5
100
AcDbSymbolTableRecord
100
AcDbLinetypeTableRecord
  2
DOTX2
 70
    0
  3
Dot (2x) .  .  .  .  .  .  .  .  .  .  .  .  .
 72
   65
 73
    2
 40
12.7
 49
0
 74
    0
 49
-12.7
 74
    0
  0
LTYPE
  5
36
330
5
100
AcDbSymbolTableRecord
100
AcDbLinetypeTableRecord
  2
DASHED
 70
    0
  3
Dashed _ _ _ _ _ _ _ _ _ _ _ _ _ _ _ _ _
 72
   65
 73
    2
 40
19.05
 49
12.7
 74
    0
 49
-6.35
 74
    0
  0
LTYPE
  5
37
330
5
100
AcDbSymbolTableRecord
100
AcDbLinetypeTableRecord
  2
DASHEDTINY
 70
    0
  3
Dashed (.15x) _ _ _ _ _ _ _ _ _ _ _ _ _ _ _ _ _
 72
   65
 73
    2
 40
2.8575
 49
1.905
 74
    0
 49
-0.9525
 74
    0
  0
LTYPE
  5
38
330
5
100
AcDbSymbolTableRecord
100
AcDbLinetypeTableRecord
  2
DASHED2
 70
    0
  3
Dashed (.5x) _ _ _ _ _ _ _ _ _ _ _ _ _ _ _ _ _
 72
   65
 73
    2
 40
9.524999999999999
 49
6.35
 74
    0
 49
-3.175
 74
    0
  0
LTYPE
  5
39
330
5
100
AcDbSymbolTableRecord
100
AcDbLinetypeTableRecord
  2
DASHEDX2
 70
    0
  3
Dashed (2x) ____  ____  ____  ____  ____  ___
 72
   65
 73
    2
 40
38.09999999999999
 49
25.4
 74
    0
 49
-12.7
 74
    0
  0
LTYPE
  5
3A
330
5
100
AcDbSymbolTableRecord
100
AcDbLinetypeTableRecord
  2
DASHDOT
 70
    0
  3
Dash dot __ . __ . __ . __ . __ . __ . __ . __
 72
   65
 73
    4
 40
25.4
 49
12.7
 74
    0
 49
-6.35
 74
    0
 49
0
 74
    0
 49
-6.35
 74
    0
  0
LTYPE
  5
3B
330
5
100
AcDbSymbolTableRecord
100
AcDbLinetypeTableRecord
  2
DASHDOTTINY
 70
    0
  3
Dash dot (.15x) _._._._._._._._._._._._._._._.
 72
   65
 73
    4
 40
3.81
 49
1.905
 74
    0
 49
-0.9525
 74
    0
 49
0
 74
    0
 49
-0.9525
 74
    0
  0
LTYPE
  5
3C
330
5
100
AcDbSymbolTableRecord
100
AcDbLinetypeTableRecord
  2
DASHDOT2
 70
    0
  3
Dash dot (.5x) _._._._._._._._._._._._._._._.
 72
   65
 73
    4
 40
12.7
 49
6.35
 74
    0
 49
-3.175
 74
    0
 49
0
 74
    0
 49
-3.175
 74
    0
  0
LTYPE
  5
3D
330
5
100
AcDbSymbolTableRecord
100
AcDbLinetypeTableRecord
  2
DASHDOTX2
 70
    0
  3
Dash dot (2x) ____  .  ____  .  ____  .  ___
 72
   65
 73
    4
 40
50.8
 49
25.4
 74
    0
 49
-12.7
 74
    0
 49
0
 74
    0
 49
-12.7
 74
    0
  0
LTYPE
  5
3E
330
5
100
AcDbSymbolTableRecord
100
AcDbLinetypeTableRecord
  2
DIVIDE
 70
    0
  3
Divide ____ . . ____ . . ____ . . ____ . . ____
 72
   65
 73
    6
 40
31.75
 49
12.7
 74
    0
 49
-6.35
 74
    0
 49
0
 74
    0
 49
-6.35
 74
    0
 49
0
 74
    0
 49
-6.35
 74
    0
  0
LTYPE
  5
3F
330
5
100
AcDbSymbolTableRecord
100
AcDbLinetypeTableRecord
  2
DIVIDETINY
 70
    0
  3
Divide (.15x) __..__..__..__..__..__..__..__.._
 72
   65
 73
    6
 40
4.7625
 49
1.905
 74
    0
 49
-0.9525
 74
    0
 49
0
 74
    0
 49
-0.9525
 74
    0
 49
0
 74
    0
 49
-0.9525
 74
    0
  0
LTYPE
  5
40
330
5
100
AcDbSymbolTableRecord
100
AcDbLinetypeTableRecord
  2
DIVIDE2
 70
    0
  3
Divide (.5x) __..__..__..__..__..__..__..__.._
 72
   65
 73
    6
 40
15.875
 49
6.35
 74
    0
 49
-3.175
 74
    0
 49
0
 74
    0
 49
-3.175
 74
    0
 49
0
 74
    0
 49
-3.175
 74
    0
  0
LTYPE
  5
41
330
5
100
AcDbSymbolTableRecord
100
AcDbLinetypeTableRecord
  2
DIVIDEX2
 70
    0
  3
Divide (2x) ________  .  .  ________  .  .  _
 72
   65
 73
    6
 40
63.5
 49
25.4
 74
    0
 49
-12.7
 74
    0
 49
0
 74
    0
 49
-12.7
 74
    0
 49
0
 74
    0
 49
-12.7
 74
    0
  0
LTYPE
  5
42
330
5
100
AcDbSymbolTableRecord
100
AcDbLinetypeTableRecord
  2
BORDER
 70
    0
  3
Border __ __ . __ __ . __ __ . __ __ . __ __ .
 72
   65
 73
    6
 40
44.45
 49
12.7
 74
    0
 49
-6.35
 74
    0
 49
12.7
 74
    0
 49
-6.35
 74
    0
 49
0
 74
    0
 49
-6.35
 74
    0
  0
LTYPE
  5
43
330
5
100
AcDbSymbolTableRecord
100
AcDbLinetypeTableRecord
  2
BORDERTINY
 70
    0
  3
Border (.15x) __.__.__.__.__.__.__.__.__.__.__.
 72
   65
 73
    6
 40
6.6675
 49
1.905
 74
    0
 49
-0.9525
 74
    0
 49
1.905
 74
    0
 49
-0.9525
 74
    0
 49
0
 74
    0
 49
-0.9525
 74
    0
  0
LTYPE
  5
44
330
5
100
AcDbSymbolTableRecord
100
AcDbLinetypeTableRecord
  2
BORDER2
 70
    0
  3
Border (.5x) __.__.__.__.__.__.__.__.__.__.__.
 72
   65
 73
    6
 40
22.225
 49
6.35
 74
    0
 49
-3.175
 74
    0
 49
6.35
 74
    0
 49
-3.175
 74
    0
 49
0
 74
    0
 49
-3.175
 74
    0
  0
LTYPE
  5
45
330
5
100
AcDbSymbolTableRecord
100
AcDbLinetypeTableRecord
  2
BORDERX2
 70
    0
  3
Border (2x) ____  ____  .  ____  ____  .  ___
 72
   65
 73
    6
 40
88.89999999999999
 49
25.4
 74
    0
 49
-12.7
 74
    0
 49
25.4
 74
    0
 49
-12.7
 74
    0
 49
0
 74
    0
 49
-12.7
 74
    0
  0
LTYPE
  5
46
330
5
100
AcDbSymbolTableRecord
100
AcDbLinetypeTableRecord
  2
CENTER
 70
    0
  3
Center ____ _ ____ _ ____ _ ____ _ ____ _ ____
 72
   65
 73
    4
 40
50.8
 49
31.75
 74
    0
 49
-6.35
 74
    0
 49
6.35
 74
    0
 49
-6.35
 74
    0
  0
LTYPE
  5
47
330
5
100
AcDbSymbolTableRecord
100
AcDbLinetypeTableRecord
  2
CENTERTINY
 70
    0
  3
Center (.15x) ___ _ ___ _ ___ _ ___ _ ___ _ ___
 72
   65
 73
    4
 40
7.619999999999999
 49
4.7625
 74
    0
 49
-0.9525
 74
    0
 49
0.9525
 74
    0
 49
-0.9525
 74
    0
  0
LTYPE
  5
48
330
5
100
AcDbSymbolTableRecord
100
AcDbLinetypeTableRecord
  2
CENTER2
 70
    0
  3
Center (.5x) ___ _ ___ _ ___ _ ___ _ ___ _ ___
 72
   65
 73
    4
 40
28.575
 49
19.05
 74
    0
 49
-3.175
 74
    0
 49
3.175
 74
    0
 49
-3.175
 74
    0
  0
LTYPE
  5
49
330
5
100
AcDbSymbolTableRecord
100
AcDbLinetypeTableRecord
  2
CENTERX2
 70
    0
  3
Center (2x) ________  __  ________  __  _____
 72
   65
 73
    4
 40
101.6
 49
63.5
 74
    0
 49
-12.7
 74
    0
 49
12.7
 74
    0
 49
-12.7
 74
    0
  0
ENDTAB
  0
TABLE
  2
LAYER
  5
2
330
0
100
AcDbSymbolTable
 70
    1
  0
LAYER
  5
10
330
2
100
AcDbSymbolTableRecord
100
AcDbLayerTableRecord
  2
0
 70
    0
 62
    7
  6
CONTINUOUS
370
    0
390
F
  0
LAYER
  5
4A
330
2
100
AcDbSymbolTableRecord
100
AcDbLayerTableRecord
  2
Cotas
 70
    0
 62
    5
  6
CONTINUOUS
370
    0
390
F
  0
ENDTAB
  0
TABLE
  2
STYLE
  5
3
330
0
100
AcDbSymbolTable
 70
    3
  0
STYLE
  5
4B
330
2
100
AcDbSymbolTableRecord
100
AcDbTextStyleTableRecord
  2
standard
 70
    0
 40
0
 41
1
 50
0
 71
    0
 42
1
  3
standard
  4

  0
ENDTAB
  0
TABLE
  2
VIEW
  5
6
330
0
100
AcDbSymbolTable
 70
    0
  0
ENDTAB
  0
TABLE
  2
UCS
  5
7
330
0
100
AcDbSymbolTable
 70
    0
  0
ENDTAB
  0
TABLE
  2
APPID
  5
9
330
0
100
AcDbSymbolTable
 70
    1
  0
APPID
  5
12
330
9
100
AcDbSymbolTableRecord
100
AcDbRegAppTableRecord
  2
ACAD
 70
    0
  0
APPID
  5
4C
330
9
100
AcDbSymbolTableRecord
100
AcDbRegAppTableRecord
  2
LibreCad
 70
    0
  0
ENDTAB
  0
TABLE
  2
DIMSTYLE
  5
A
330
0
100
AcDbSymbolTable
 70
    1
100
AcDbDimStyleTable
 71
    1
  0
DIMSTYLE
105
4D
330
A
100
AcDbSymbolTableRecord
100
AcDbDimStyleTableRecord
  2
Standard
 70
    0
 40
10
 41
2.5
 42
0.625
 43
0.38
 44
1.25
 45
0
 46
0
 47
0
 48
0
 49
1
140
2.5
141
0.09
142
0
143
25.4
144
1
145
0
146
1
147
0.625
148
0
 71
    0
 72
    0
 73
    0
 74
    1
 75
    0
 76
    0
 77
    0
 78
    1
 79
    0
170
    0
171
    2
172
    0
173
    0
174
    0
175
    0
176
    0
177
    0
178
    0
179
    0
271
    0
272
    4
273
    2
274
    2
275
    0
276
    0
277
    2
278
    0
279
    0
280
    0
281
    0
282
    0
283
    1
284
    0
285
    0
286
    0
288
    0
289
    3
340
standard
341

371
   -2
372
   -2
  0
ENDTAB
  0
TABLE
  2
BLOCK_RECORD
  5
1
330
0
100
AcDbSymbolTable
 70
    2
  0
BLOCK_RECORD
  5
1F
330
1
100
AcDbSymbolTableRecord
100
AcDbBlockTableRecord
  2
*Model_Space
 70
    0
280
    1
281
    0
  0
BLOCK_RECORD
  5
1E
330
1
100
AcDbSymbolTableRecord
100
AcDbBlockTableRecord
  2
*Paper_Space
 70
    0
280
    1
281
    0
  0
BLOCK_RECORD
  5
4E
330
1
100
AcDbSymbolTableRecord
100
AcDbBlockTableRecord
  2
*D24
 70
    0
280
    1
281
    0
  0
BLOCK_RECORD
  5
51
330
1
100
AcDbSymbolTableRecord
100
AcDbBlockTableRecord
  2
*D17
 70
    0
280
    1
281
    0
  0
BLOCK_RECORD
  5
54
330
1
100
AcDbSymbolTableRecord
100
AcDbBlockTableRecord
  2
*D5
 70
    0
280
    1
281
    0
  0
BLOCK_RECORD
  5
57
330
1
100
AcDbSymbolTableRecord
100
AcDbBlockTableRecord
  2
*D20
 70
    0
280
    1
281
    0
  0
BLOCK_RECORD
  5
5A
330
1
100
AcDbSymbolTableRecord
100
AcDbBlockTableRecord
  2
*D26
 70
    0
280
    1
281
    0
  0
BLOCK_RECORD
  5
5D
330
1
100
AcDbSymbolTableRecord
100
AcDbBlockTableRecord
  2
*D16
 70
    0
280
    1
281
    0
  0
BLOCK_RECORD
  5
60
330
1
100
AcDbSymbolTableRecord
100
AcDbBlockTableRecord
  2
*D12
 70
    0
280
    1
281
    0
  0
BLOCK_RECORD
  5
63
330
1
100
AcDbSymbolTableRecord
100
AcDbBlockTableRecord
  2
*D35
 70
    0
280
    1
281
    0
  0
BLOCK_RECORD
  5
66
330
1
100
AcDbSymbolTableRecord
100
AcDbBlockTableRecord
  2
*D32
 70
    0
280
    1
281
    0
  0
BLOCK_RECORD
  5
69
330
1
100
AcDbSymbolTableRecord
100
AcDbBlockTableRecord
  2
*D18
 70
    0
280
    1
281
    0
  0
BLOCK_RECORD
  5
6C
330
1
100
AcDbSymbolTableRecord
100
AcDbBlockTableRecord
  2
*D23
 70
    0
280
    1
281
    0
  0
BLOCK_RECORD
  5
6F
330
1
100
AcDbSymbolTableRecord
100
AcDbBlockTableRecord
  2
*D13
 70
    0
280
    1
281
    0
  0
BLOCK_RECORD
  5
72
330
1
100
AcDbSymbolTableRecord
100
AcDbBlockTableRecord
  2
*D31
 70
    0
280
    1
281
    0
  0
BLOCK_RECORD
  5
75
330
1
100
AcDbSymbolTableRecord
100
AcDbBlockTableRecord
  2
*D2
 70
    0
280
    1
281
    0
  0
BLOCK_RECORD
  5
78
330
1
100
AcDbSymbolTableRecord
100
AcDbBlockTableRecord
  2
*D1
 70
    0
280
    1
281
    0
  0
BLOCK_RECORD
  5
7B
330
1
100
AcDbSymbolTableRecord
100
AcDbBlockTableRecord
  2
*D14
 70
    0
280
    1
281
    0
  0
BLOCK_RECORD
  5
7E
330
1
100
AcDbSymbolTableRecord
100
AcDbBlockTableRecord
  2
*D39
 70
    0
280
    1
281
    0
  0
BLOCK_RECORD
  5
81
330
1
100
AcDbSymbolTableRecord
100
AcDbBlockTableRecord
  2
*D27
 70
    0
280
    1
281
    0
  0
BLOCK_RECORD
  5
84
330
1
100
AcDbSymbolTableRecord
100
AcDbBlockTableRecord
  2
*D9
 70
    0
280
    1
281
    0
  0
BLOCK_RECORD
  5
87
330
1
100
AcDbSymbolTableRecord
100
AcDbBlockTableRecord
  2
*D11
 70
    0
280
    1
281
    0
  0
BLOCK_RECORD
  5
8A
330
1
100
AcDbSymbolTableRecord
100
AcDbBlockTableRecord
  2
*D33
 70
    0
280
    1
281
    0
  0
BLOCK_RECORD
  5
8D
330
1
100
AcDbSymbolTableRecord
100
AcDbBlockTableRecord
  2
*D3
 70
    0
280
    1
281
    0
  0
BLOCK_RECORD
  5
90
330
1
100
AcDbSymbolTableRecord
100
AcDbBlockTableRecord
  2
*D25
 70
    0
280
    1
281
    0
  0
BLOCK_RECORD
  5
93
330
1
100
AcDbSymbolTableRecord
100
AcDbBlockTableRecord
  2
*D15
 70
    0
280
    1
281
    0
  0
BLOCK_RECORD
  5
96
330
1
100
AcDbSymbolTableRecord
100
AcDbBlockTableRecord
  2
*D38
 70
    0
280
    1
281
    0
  0
BLOCK_RECORD
  5
99
330
1
100
AcDbSymbolTableRecord
100
AcDbBlockTableRecord
  2
*D37
 70
    0
280
    1
281
    0
  0
BLOCK_RECORD
  5
9C
330
1
100
AcDbSymbolTableRecord
100
AcDbBlockTableRecord
  2
*D7
 70
    0
280
    1
281
    0
  0
BLOCK_RECORD
  5
9F
330
1
100
AcDbSymbolTableRecord
100
AcDbBlockTableRecord
  2
*D34
 70
    0
280
    1
281
    0
  0
BLOCK_RECORD
  5
A2
330
1
100
AcDbSymbolTableRecord
100
AcDbBlockTableRecord
  2
*D19
 70
    0
280
    1
281
    0
  0
BLOCK_RECORD
  5
A5
330
1
100
AcDbSymbolTableRecord
100
AcDbBlockTableRecord
  2
*D8
 70
    0
280
    1
281
    0
  0
BLOCK_RECORD
  5
A8
330
1
100
AcDbSymbolTableRecord
100
AcDbBlockTableRecord
  2
*D4
 70
    0
280
    1
281
    0
  0
BLOCK_RECORD
  5
AB
330
1
100
AcDbSymbolTableRecord
100
AcDbBlockTableRecord
  2
*D28
 70
    0
280
    1
281
    0
  0
BLOCK_RECORD
  5
AE
330
1
100
AcDbSymbolTableRecord
100
AcDbBlockTableRecord
  2
*D6
 70
    0
280
    1
281
    0
  0
BLOCK_RECORD
  5
B1
330
1
100
AcDbSymbolTableRecord
100
AcDbBlockTableRecord
  2
*D30
 70
    0
280
    1
281
    0
  0
BLOCK_RECORD
  5
B4
330
1
100
AcDbSymbolTableRecord
100
AcDbBlockTableRecord
  2
*D21
 70
    0
280
    1
281
    0
  0
BLOCK_RECORD
  5
B7
330
1
100
AcDbSymbolTableRecord
100
AcDbBlockTableRecord
  2
*D40
 70
    0
280
    1
281
    0
  0
BLOCK_RECORD
  5
BA
330
1
100
AcDbSymbolTableRecord
100
AcDbBlockTableRecord
  2
*D36
 70
    0
280
    1
281
    0
  0
BLOCK_RECORD
  5
BD
330
1
100
AcDbSymbolTableRecord
100
AcDbBlockTableRecord
  2
*D29
 70
    0
280
    1
281
    0
  0
BLOCK_RECORD
  5
C0
330
1
100
AcDbSymbolTableRecord
100
AcDbBlockTableRecord
  2
*D10
 70
    0
280
    1
281
    0
  0
BLOCK_RECORD
  5
C3
330
1
100
AcDbSymbolTableRecord
100
AcDbBlockTableRecord
  2
*D22
 70
    0
280
    1
281
    0
  0
ENDTAB
  0
ENDSEC
  0
SECTION
  2
BLOCKS
  0
BLOCK
  5
20
330
1F
100
AcDbEntity
  8
0
100
AcDbBlockBegin
  2
*Model_Space
 70
    0
 10
0
 20
0
 30
0
  3
*Model_Space
  1

  0
ENDBLK
  5
21
330
1F
100
AcDbEntity
  8
0
100
AcDbBlockEnd
  0
BLOCK
  5
1C
330
1B
100
AcDbEntity
  8
0
100
AcDbBlockBegin
  2
*Paper_Space
 70
    0
 10
0
 20
0
 30
0
  3
*Paper_Space
  1

  0
ENDBLK
  5
1D
330
1F
100
AcDbEntity
  8
0
100
AcDbBlockEnd
  0
BLOCK
  5
4F
330
4E
100
AcDbEntity
  8
0
100
AcDbBlockBegin
  2
*D24
 70
    1
 10
0
 20
0
  3
*D24
  1

  0
LINE
  5
C6
100
AcDbEntity
  8
Cotas
  6
ByBlock
 62
    0
370
   -2
100
AcDbLine
 10
1077.88094502
 20
280
 11
1510.03484812
 21
280
  0
SOLID
  5
C7
100
AcDbEntity
  8
Cotas
  6
ByBlock
 62
    0
370
   -2
100
AcDbTrace
 10
1077.88094502
 20
280
 30
0
 11
1102.88094502
 21
284.1628465777284
 31
0
 12
1102.88094502
 22
275.8371534222716
 32
0
 13
1102.88094502
 23
275.8371534222716
 33
0
  0
SOLID
  5
C8
100
AcDbEntity
  8
Cotas
  6
ByBlock
 62
    0
370
   -2
100
AcDbTrace
 10
1510.03484812
 20
280
 30
0
 11
1485.03484812
 21
275.8371534222716
 31
0
 12
1485.03484812
 22
284.1628465777284
 32
0
 13
1485.03484812
 23
284.1628465777284
 33
0
  0
MTEXT
  5
C9
100
AcDbEntity
  8
Cotas
  6
CONTINUOUS
 62
    0
370
   -2
100
AcDbMText
 10
1293.95789657
 20
298.75
 30
0
 40
25
 41
52.77777777777933
 71
    5
 72
    1
  1
432
  7
standard
210
0
220
0
230
1
 50
0
 73
    2
 44
1
  0
LINE
  5
CA
100
AcDbEntity
  8
Cotas
  6
ByBlock
 62
    0
370
   -2
100
AcDbLine
 10
1077.88094502
 20
503.068808652
 11
1077.88094502
 21
267.5
  0
LINE
  5
CB
100
AcDbEntity
  8
Cotas
  6
ByBlock
 62
    0
370
   -2
100
AcDbLine
 10
1510.03484812
 20
503.068808652
 11
1510.03484812
 21
267.5
  0
ENDBLK
  5
50
330
4E
100
AcDbEntity
  8
0
100
AcDbBlockEnd
  0
BLOCK
  5
52
330
51
100
AcDbEntity
  8
0
100
AcDbBlockBegin
  2
*D17
 70
    1
 10
0
 20
0
  3
*D17
  1

  0
LINE
  5
CC
100
AcDbEntity
  8
Cotas
  6
ByBlock
 62
    0
370
   -2
100
AcDbLine
 10
1650
 20
1010
 11
1650
 21
1180
  0
SOLID
  5
CD
100
AcDbEntity
  8
Cotas
  6
ByBlock
 62
    0
370
   -2
100
AcDbTrace
 10
1650
 20
1010
 30
0
 11
1645.837153422272
 21
1035
 31
0
 12
1654.162846577728
 22
1035
 32
0
 13
1654.162846577728
 23
1035
 33
0
  0
SOLID
  5
CE
100
AcDbEntity
  8
Cotas
  6
ByBlock
 62
    0
370
   -2
100
AcDbTrace
 10
1650
 20
1180
 30
0
 11
1654.162846577728
 21
1155
 31
0
 12
1645.837153422272
 22
1155
 32
0
 13
1645.837153422272
 23
1155
 33
0
  0
MTEXT
  5
CF
100
AcDbEntity
  8
Cotas
  6
CONTINUOUS
 62
    0
370
   -2
100
AcDbMText
 10
1631.25
 20
1095
 30
0
 40
25
 41
44.44444444444444
 71
    5
 72
    1
  1
170
  7
standard
210
0
220
0
230
1
 50
90
 73
    2
 44
1
  0
LINE
  5
D0
100
AcDbEntity
  8
Cotas
  6
ByBlock
 62
    0
370
   -2
100
AcDbLine
 10
1356.25
 20
1010
 11
1662.5
 21
1010
  0
LINE
  5
D1
100
AcDbEntity
  8
Cotas
  6
ByBlock
 62
    0
370
   -2
100
AcDbLine
 10
1356.25
 20
1180
 11
1662.5
 21
1180
  0
ENDBLK
  5
53
330
51
100
AcDbEntity
  8
0
100
AcDbBlockEnd
  0
BLOCK
  5
55
330
54
100
AcDbEntity
  8
0
100
AcDbBlockBegin
  2
*D5
 70
    1
 10
0
 20
0
  3
*D5
  1

  0
LINE
  5
D2
100
AcDbEntity
  8
Cotas
  6
ByBlock
 62
    0
370
   -2
100
AcDbLine
 10
470
 20
490
 11
470
 21
355
  0
SOLID
  5
D3
100
AcDbEntity
  8
Cotas
  6
ByBlock
 62
    0
370
   -2
100
AcDbTrace
 10
470
 20
490
 30
0
 11
474.1628465777284
 21
465
 31
0
 12
465.8371534222716
 22
465
 32
0
 13
465.8371534222716
 23
465
 33
0
  0
SOLID
  5
D4
100
AcDbEntity
  8
Cotas
  6
ByBlock
 62
    0
370
   -2
100
AcDbTrace
 10
470
 20
355
 30
0
 11
465.8371534222716
 21
380
 31
0
 12
474.1628465777284
 22
380
 32
0
 13
474.1628465777284
 23
380
 33
0
  0
MTEXT
  5
D5
100
AcDbEntity
  8
Cotas
  6
CONTINUOUS
 62
    0
370
   -2
100
AcDbMText
 10
451.25
 20
422.5
 30
0
 40
25
 41
44.44444444444755
 71
    5
 72
    1
  1
135
  7
standard
210
0
220
0
230
1
 50
90
 73
    2
 44
1
  0
LINE
  5
D6
100
AcDbEntity
  8
Cotas
  6
ByBlock
 62
    0
370
   -2
100
AcDbLine
 10
523.75
 20
490
 11
457.5
 21
490
  0
LINE
  5
D7
100
AcDbEntity
  8
Cotas
  6
ByBlock
 62
    0
370
   -2
100
AcDbLine
 10
523.75
 20
355
 11
457.5
 21
355
  0
ENDBLK
  5
56
330
54
100
AcDbEntity
  8
0
100
AcDbBlockEnd
  0
BLOCK
  5
58
330
57
100
AcDbEntity
  8
0
100
AcDbBlockBegin
  2
*D20
 70
    1
 10
0
 20
0
  3
*D20
  1

  0
LINE
  5
D8
100
AcDbEntity
  8
Cotas
  6
ByBlock
 62
    0
370
   -2
100
AcDbLine
 10
1367.666966325801
 20
972.6021541990156
 11
1381.540898794034
 21
1002.354898392897
  0
LINE
  5
D9
100
AcDbEntity
  8
Cotas
  6
ByBlock
 62
    0
370
   -2
100
AcDbLine
 10
1512.676212255801
 20
904.9832323210156
 11
1526.550144724034
 21
934.7359765148972
  0
LINE
  5
DA
100
AcDbEntity
  8
Cotas
  6
ByBlock
 62
    0
370
   -2
100
AcDbLine
 10
1376.258170522432
 20
991.0260510548659
 11
1521.267416452432
 21
923.407129176866
  0
SOLID
  5
DB
100
AcDbEntity
  8
Cotas
  6
ByBlock
 62
    0
370
   -2
100
AcDbTrace
 10
1376.258170522432
 20
991.0260510548659
 30
0
 11
1400.675160183015
 21
984.2334147813201
 31
0
 12
1397.156570213974
 22
976.6877742420032
 32
0
 13
1397.156570213974
 23
976.6877742420032
 33
0
  0
SOLID
  5
DC
100
AcDbEntity
  8
Cotas
  6
ByBlock
 62
    0
370
   -2
100
AcDbTrace
 10
1521.267416452432
 20
923.407129176866
 30
0
 11
1496.850426791849
 21
930.1997654504117
 31
0
 12
1500.36901676089
 22
937.7454059897286
 32
0
 13
1500.36901676089
 23
937.7454059897286
 33
0
  0
MTEXT
  5
DD
100
AcDbEntity
  8
Cotas
  6
CONTINUOUS
 62
    0
370
   -2
100
AcDbMText
 10
1456.686885894835
 20
974.2098611229127
 30
0
 40
25
 41
44.44444444444599
 71
    5
 72
    1
  1
160
  7
standard
210
0
220
0
230
1
 50
335.0000000007921
 73
    2
 44
1
  0
ENDBLK
  5
59
330
57
100
AcDbEntity
  8
0
100
AcDbBlockEnd
  0
BLOCK
  5
5B
330
5A
100
AcDbEntity
  8
0
100
AcDbBlockBegin
  2
*D26
 70
    1
 10
0
 20
0
  3
*D26
  1

  0
LINE
  5
DE
100
AcDbEntity
  8
Cotas
  6
ByBlock
 62
    0
370
   -2
100
AcDbLine
 10
3030
 20
1040
 11
2530
 21
1040
  0
SOLID
  5
DF
100
AcDbEntity
  8
Cotas
  6
ByBlock
 62
    0
370
   -2
100
AcDbTrace
 10
3030
 20
1040
 30
0
 11
3005
 21
1035.837153422272
 31
0
 12
3005
 22
1044.162846577728
 32
0
 13
3005
 23
1044.162846577728
 33
0
  0
SOLID
  5
E0
100
AcDbEntity
  8
Cotas
  6
ByBlock
 62
    0
370
   -2
100
AcDbTrace
 10
2530
 20
1040
 30
0
 11
2555
 21
1044.162846577728
 31
0
 12
2555
 22
1035.837153422272
 32
0
 13
2555
 23
1035.837153422272
 33
0
  0
MTEXT
  5
E1
100
AcDbEntity
  8
Cotas
  6
CONTINUOUS
 62
    0
370
   -2
100
AcDbMText
 10
2780
 20
1058.75
 30
0
 40
25
 41
50.00000000000155
 71
    5
 72
    1
  1
500
  7
standard
210
0
220
0
230
1
 50
360
 73
    2
 44
1
  0
LINE
  5
E2
100
AcDbEntity
  8
Cotas
  6
ByBlock
 62
    0
370
   -2
100
AcDbLine
 10
3030
 20
1016.25
 11
3030
 21
1052.5
  0
LINE
  5
E3
100
AcDbEntity
  8
Cotas
  6
ByBlock
 62
    0
370
   -2
100
AcDbLine
 10
2530
 20
1016.25
 11
2530
 21
1052.5
  0
ENDBLK
  5
5C
330
5A
100
AcDbEntity
  8
0
100
AcDbBlockEnd
  0
BLOCK
  5
5E
330
5D
100
AcDbEntity
  8
0
100
AcDbBlockBegin
  2
*D16
 70
    1
 10
0
 20
0
  3
*D16
  1

  0
LINE
  5
E4
100
AcDbEntity
  8
Cotas
  6
ByBlock
 62
    0
370
   -2
100
AcDbLine
 10
1540
 20
1060
 11
1540
 21
1180
  0
SOLID
  5
E5
100
AcDbEntity
  8
Cotas
  6
ByBlock
 62
    0
370
   -2
100
AcDbTrace
 10
1540
 20
1060
 30
0
 11
1535.837153422272
 21
1085
 31
0
 12
1544.162846577728
 22
1085
 32
0
 13
1544.162846577728
 23
1085
 33
0
  0
SOLID
  5
E6
100
AcDbEntity
  8
Cotas
  6
ByBlock
 62
    0
370
   -2
100
AcDbTrace
 10
1540
 20
1180
 30
0
 11
1544.162846577728
 21
1155
 31
0
 12
1535.837153422272
 22
1155
 32
0
 13
1535.837153422272
 23
1155
 33
0
  0
MTEXT
  5
E7
100
AcDbEntity
  8
Cotas
  6
CONTINUOUS
 62
    0
370
   -2
100
AcDbMText
 10
1521.25
 20
1120
 30
0
 40
25
 41
44.44444444444444
 71
    5
 72
    1
  1
120
  7
standard
210
0
220
0
230
1
 50
90
 73
    2
 44
1
  0
LINE
  5
E8
100
AcDbEntity
  8
Cotas
  6
ByBlock
 62
    0
370
   -2
100
AcDbLine
 10
1528.40390309
 20
1060
 11
1552.5
 21
1060
  0
LINE
  5
E9
100
AcDbEntity
  8
Cotas
  6
ByBlock
 62
    0
370
   -2
100
AcDbLine
 10
1528.40390309
 20
1180
 11
1552.5
 21
1180
  0
ENDBLK
  5
5F
330
5D
100
AcDbEntity
  8
0
100
AcDbBlockEnd
  0
BLOCK
  5
61
330
60
100
AcDbEntity
  8
0
100
AcDbBlockBegin
  2
*D12
 70
    1
 10
0
 20
0
  3
*D12
  1

  0
LINE
  5
EA
100
AcDbEntity
  8
Cotas
  6
ByBlock
 62
    0
370
   -2
100
AcDbLine
 10
1490
 20
1280
 11
1090
 21
1280
  0
SOLID
  5
EB
100
AcDbEntity
  8
Cotas
  6
ByBlock
 62
    0
370
   -2
100
AcDbTrace
 10
1490
 20
1280
 30
0
 11
1465
 21
1275.837153422272
 31
0
 12
1465
 22
1284.162846577728
 32
0
 13
1465
 23
1284.162846577728
 33
0
  0
SOLID
  5
EC
100
AcDbEntity
  8
Cotas
  6
ByBlock
 62
    0
370
   -2
100
AcDbTrace
 10
1090
 20
1280
 30
0
 11
1115
 21
1284.162846577728
 31
0
 12
1115
 22
1275.837153422272
 32
0
 13
1115
 23
1275.837153422272
 33
0
  0
MTEXT
  5
ED
100
AcDbEntity
  8
Cotas
  6
CONTINUOUS
 62
    0
370
   -2
100
AcDbMText
 10
1290
 20
1298.75
 30
0
 40
25
 41
52.77777777777777
 71
    5
 72
    1
  1
400
  7
standard
210
0
220
0
230
1
 50
360
 73
    2
 44
1
  0
LINE
  5
EE
100
AcDbEntity
  8
Cotas
  6
ByBlock
 62
    0
370
   -2
100
AcDbLine
 10
1490
 20
1186.25
 11
1490
 21
1292.5
  0
LINE
  5
EF
100
AcDbEntity
  8
Cotas
  6
ByBlock
 62
    0
370
   -2
100
AcDbLine
 10
1090
 20
1186.25
 11
1090
 21
1292.5
  0
ENDBLK
  5
62
330
60
100
AcDbEntity
  8
0
100
AcDbBlockEnd
  0
BLOCK
  5
64
330
63
100
AcDbEntity
  8
0
100
AcDbBlockBegin
  2
*D35
 70
    1
 10
0
 20
0
  3
*D35
  1

  0
LINE
  5
F0
100
AcDbEntity
  8
Cotas
  6
ByBlock
 62
    0
370
   -2
100
AcDbLine
 10
480
 20
330
 11
480
 21
260
  0
SOLID
  5
F1
100
AcDbEntity
  8
Cotas
  6
ByBlock
 62
    0
370
   -2
100
AcDbTrace
 10
480
 20
330
 30
0
 11
484.1628465777284
 21
305
 31
0
 12
475.8371534222716
 22
305
 32
0
 13
475.8371534222716
 23
305
 33
0
  0
SOLID
  5
F2
100
AcDbEntity
  8
Cotas
  6
ByBlock
 62
    0
370
   -2
100
AcDbTrace
 10
480
 20
260
 30
0
 11
475.8371534222716
 21
285
 31
0
 12
484.1628465777284
 22
285
 32
0
 13
484.1628465777284
 23
285
 33
0
  0
MTEXT
  5
F3
100
AcDbEntity
  8
Cotas
  6
CONTINUOUS
 62
    0
370
   -2
100
AcDbMText
 10
461.25
 20
295
 30
0
 40
25
 41
30.55555555555555
 71
    5
 72
    1
  1
70
  7
standard
210
0
220
0
230
1
 50
90
 73
    2
 44
1
  0
LINE
  5
F4
100
AcDbEntity
  8
Cotas
  6
ByBlock
 62
    0
370
   -2
100
AcDbLine
 10
523.75
 20
330
 11
467.5
 21
330
  0
LINE
  5
F5
100
AcDbEntity
  8
Cotas
  6
ByBlock
 62
    0
370
   -2
100
AcDbLine
 10
523.75
 20
260
 11
467.5
 21
260
  0
ENDBLK
  5
65
330
63
100
AcDbEntity
  8
0
100
AcDbBlockEnd
  0
BLOCK
  5
67
330
66
100
AcDbEntity
  8
0
100
AcDbBlockBegin
  2
*D32
 70
    1
 10
0
 20
0
  3
*D32
  1

  0
LINE
  5
F6
100
AcDbEntity
  8
Cotas
  6
ByBlock
 62
    0
370
   -2
100
AcDbLine
 10
1020
 20
790
 11
1020
 21
590
  0
SOLID
  5
F7
100
AcDbEntity
  8
Cotas
  6
ByBlock
 62
    0
370
   -2
100
AcDbTrace
 10
1020
 20
790
 30
0
 11
1024.162846577728
 21
765
 31
0
 12
1015.837153422272
 22
765
 32
0
 13
1015.837153422272
 23
765
 33
0
  0
SOLID
  5
F8
100
AcDbEntity
  8
Cotas
  6
ByBlock
 62
    0
370
   -2
100
AcDbTrace
 10
1020
 20
590
 30
0
 11
1015.837153422272
 21
615
 31
0
 12
1024.162846577728
 22
615
 32
0
 13
1024.162846577728
 23
615
 33
0
  0
MTEXT
  5
F9
100
AcDbEntity
  8
Cotas
  6
CONTINUOUS
 62
    0
370
   -2
100
AcDbMText
 10
1001.25
 20
690
 30
0
 40
25
 41
50
 71
    5
 72
    1
  1
200
  7
standard
210
0
220
0
230
1
 50
90
 73
    2
 44
1
  0
LINE
  5
FA
100
AcDbEntity
  8
Cotas
  6
ByBlock
 62
    0
370
   -2
100
AcDbLine
 10
1053.75
 20
790
 11
1007.5
 21
790
  0
LINE
  5
FB
100
AcDbEntity
  8
Cotas
  6
ByBlock
 62
    0
370
   -2
100
AcDbLine
 10
1053.75
 20
590
 11
1007.5
 21
590
  0
ENDBLK
  5
68
330
66
100
AcDbEntity
  8
0
100
AcDbBlockEnd
  0
BLOCK
  5
6A
330
69
100
AcDbEntity
  8
0
100
AcDbBlockBegin
  2
*D18
 70
    1
 10
0
 20
0
  3
*D18
  1

  0
LINE
  5
FC
100
AcDbEntity
  8
Cotas
  6
ByBlock
 62
    0
370
   -2
100
AcDbLine
 10
1522.15390309
 20
1339.0793238
 11
1090
 21
1339.0793238
  0
SOLID
  5
FD
100
AcDbEntity
  8
Cotas
  6
ByBlock
 62
    0
370
   -2
100
AcDbTrace
 10
1522.15390309
 20
1339.0793238
 30
0
 11
1497.15390309
 21
1334.916477222272
 31
0
 12
1497.15390309
 22
1343.242170377729
 32
0
 13
1497.15390309
 23
1343.242170377729
 33
0
  0
SOLID
  5
FE
100
AcDbEntity
  8
Cotas
  6
ByBlock
 62
    0
370
   -2
100
AcDbTrace
 10
1090
 20
1339.0793238
 30
0
 11
1115
 21
1343.242170377729
 31
0
 12
1115
 22
1334.916477222272
 32
0
 13
1115
 23
1334.916477222272
 33
0
  0
MTEXT
  5
FF
100
AcDbEntity
  8
Cotas
  6
CONTINUOUS
 62
    0
370
   -2
100
AcDbMText
 10
1306.076951545
 20
1357.8293238
 30
0
 40
25
 41
52.77777777777933
 71
    5
 72
    1
  1
432
  7
standard
210
0
220
0
230
1
 50
360
 73
    2
 44
1
  0
LINE
  5
100
100
AcDbEntity
  8
Cotas
  6
ByBlock
 62
    0
370
   -2
100
AcDbLine
 10
1522.15390309
 20
1066.25
 11
1522.15390309
 21
1351.5793238
  0
LINE
  5
101
100
AcDbEntity
  8
Cotas
  6
ByBlock
 62
    0
370
   -2
100
AcDbLine
 10
1090
 20
1066.25
 11
1090
 21
1351.5793238
  0
ENDBLK
  5
6B
330
69
100
AcDbEntity
  8
0
100
AcDbBlockEnd
  0
BLOCK
  5
6D
330
6C
100
AcDbEntity
  8
0
100
AcDbBlockBegin
  2
*D23
 70
    1
 10
0
 20
0
  3
*D23
  1

  0
LINE
  5
102
100
AcDbEntity
  8
Cotas
  6
ByBlock
 62
    0
370
   -2
100
AcDbLine
 10
1550
 20
899.3188086519999
 11
1550
 21
389.318808652
  0
SOLID
  5
103
100
AcDbEntity
  8
Cotas
  6
ByBlock
 62
    0
370
   -2
100
AcDbTrace
 10
1550
 20
899.3188086519999
 30
0
 11
1554.162846577728
 21
874.3188086519999
 31
0
 12
1545.837153422272
 22
874.3188086519999
 32
0
 13
1545.837153422272
 23
874.3188086519999
 33
0
  0
SOLID
  5
104
100
AcDbEntity
  8
Cotas
  6
ByBlock
 62
    0
370
   -2
100
AcDbTrace
 10
1550
 20
389.318808652
 30
0
 11
1545.837153422272
 21
414.318808652
 31
0
 12
1554.162846577728
 22
414.318808652
 32
0
 13
1554.162846577728
 23
414.318808652
 33
0
  0
MTEXT
  5
105
100
AcDbEntity
  8
Cotas
  6
CONTINUOUS
 62
    0
370
   -2
100
AcDbMText
 10
1531.25
 20
644.3188086519999
 30
0
 40
25
 41
44.44444444444599
 71
    5
 72
    1
  1
510
  7
standard
210
0
220
0
230
1
 50
90
 73
    2
 44
1
  0
LINE
  5
106
100
AcDbEntity
  8
Cotas
  6
ByBlock
 62
    0
370
   -2
100
AcDbLine
 10
1516.28484812
 20
899.318808652
 11
1562.5
 21
899.3188086519999
  0
LINE
  5
107
100
AcDbEntity
  8
Cotas
  6
ByBlock
 62
    0
370
   -2
100
AcDbLine
 10
1516.28484812
 20
389.318808652
 11
1562.5
 21
389.318808652
  0
ENDBLK
  5
6E
330
6C
100
AcDbEntity
  8
0
100
AcDbBlockEnd
  0
BLOCK
  5
70
330
6F
100
AcDbEntity
  8
0
100
AcDbBlockBegin
  2
*D13
 70
    1
 10
0
 20
0
  3
*D13
  1

  0
LINE
  5
108
100
AcDbEntity
  8
Cotas
  6
ByBlock
 62
    0
370
   -2
100
AcDbLine
 10
1232.367881794167
 20
596.7166544519994
 11
1218.493949326149
 21
566.9639102590179
  0
LINE
  5
109
100
AcDbEntity
  8
Cotas
  6
ByBlock
 62
    0
370
   -2
100
AcDbLine
 10
1087.358635864167
 20
664.3355763309994
 11
1073.484703396149
 21
634.5828321380179
  0
LINE
  5
10A
100
AcDbEntity
  8
Cotas
  6
ByBlock
 62
    0
370
   -2
100
AcDbLine
 10
1223.776677597815
 20
578.2927575970191
 11
1078.767431667815
 21
645.9116794760191
  0
SOLID
  5
10B
100
AcDbEntity
  8
Cotas
  6
ByBlock
 62
    0
370
   -2
100
AcDbTrace
 10
1223.776677597815
 20
578.2927575970191
 30
0
 11
1199.35968793727
 21
585.0853938707032
 31
0
 12
1202.878277906354
 22
592.6310344100002
 32
0
 13
1202.878277906354
 23
592.6310344100002
 33
0
  0
SOLID
  5
10C
100
AcDbEntity
  8
Cotas
  6
ByBlock
 62
    0
370
   -2
100
AcDbTrace
 10
1078.767431667815
 20
645.9116794760191
 30
0
 11
1103.184421328359
 21
639.119043202335
 31
0
 12
1099.665831359275
 22
631.573402663038
 32
0
 13
1099.665831359275
 23
631.573402663038
 33
0
  0
MTEXT
  5
10D
100
AcDbEntity
  8
Cotas
  6
CONTINUOUS
 62
    0
370
   -2
100
AcDbMText
 10
1159.196147040314
 20
629.0954895435209
 30
0
 40
25
 41
44.44444444444599
 71
    5
 72
    1
  1
160
  7
standard
210
0
220
0
230
1
 50
335.0000000004675
 73
    2
 44
1
  0
ENDBLK
  5
71
330
6F
100
AcDbEntity
  8
0
100
AcDbBlockEnd
  0
BLOCK
  5
73
330
72
100
AcDbEntity
  8
0
100
AcDbBlockBegin
  2
*D31
 70
    1
 10
0
 20
0
  3
*D31
  1

  0
LINE
  5
10E
100
AcDbEntity
  8
Cotas
  6
ByBlock
 62
    0
370
   -2
100
AcDbLine
 10
1010.03484812
 20
519.318808652
 11
1010.03484812
 21
389.318808652
  0
SOLID
  5
10F
100
AcDbEntity
  8
Cotas
  6
ByBlock
 62
    0
370
   -2
100
AcDbTrace
 10
1010.03484812
 20
519.318808652
 30
0
 11
1014.197694697728
 21
494.318808652
 31
0
 12
1005.872001542272
 22
494.318808652
 32
0
 13
1005.872001542272
 23
494.318808652
 33
0
  0
SOLID
  5
110
100
AcDbEntity
  8
Cotas
  6
ByBlock
 62
    0
370
   -2
100
AcDbTrace
 10
1010.03484812
 20
389.318808652
 30
0
 11
1005.872001542272
 21
414.318808652
 31
0
 12
1014.197694697728
 22
414.318808652
 32
0
 13
1014.197694697728
 23
414.318808652
 33
0
  0
MTEXT
  5
111
100
AcDbEntity
  8
Cotas
  6
CONTINUOUS
 62
    0
370
   -2
100
AcDbMText
 10
991.28484812
 20
454.318808652
 30
0
 40
25
 41
44.44444444444599
 71
    5
 72
    1
  1
130
  7
standard
210
0
220
0
230
1
 50
90
 73
    2
 44
1
  0
LINE
  5
112
100
AcDbEntity
  8
Cotas
  6
ByBlock
 62
    0
370
   -2
100
AcDbLine
 10
1143.78484812
 20
519.318808652
 11
997.53484812
 21
519.318808652
  0
LINE
  5
113
100
AcDbEntity
  8
Cotas
  6
ByBlock
 62
    0
370
   -2
100
AcDbLine
 10
1143.78484812
 20
389.318808652
 11
997.53484812
 21
389.318808652
  0
ENDBLK
  5
74
330
72
100
AcDbEntity
  8
0
100
AcDbBlockEnd
  0
BLOCK
  5
76
330
75
100
AcDbEntity
  8
0
100
AcDbBlockBegin
  2
*D2
 70
    1
 10
0
 20
0
  3
*D2
  1

  0
LINE
  5
114
100
AcDbEntity
  8
Cotas
  6
ByBlock
 62
    0
370
   -2
100
AcDbLine
 10
30
 20
750
 11
530
 21
750
  0
SOLID
  5
115
100
AcDbEntity
  8
Cotas
  6
ByBlock
 62
    0
370
   -2
100
AcDbTrace
 10
30
 20
750
 30
0
 11
55
 21
754.1628465777284
 31
0
 12
55
 22
745.8371534222716
 32
0
 13
55
 23
745.8371534222716
 33
0
  0
SOLID
  5
116
100
AcDbEntity
  8
Cotas
  6
ByBlock
 62
    0
370
   -2
100
AcDbTrace
 10
530
 20
750
 30
0
 11
505
 21
745.8371534222716
 31
0
 12
505
 22
754.1628465777284
 32
0
 13
505
 23
754.1628465777284
 33
0
  0
MTEXT
  5
117
100
AcDbEntity
  8
Cotas
  6
CONTINUOUS
 62
    0
370
   -2
100
AcDbMText
 10
280
 20
768.75
 30
0
 40
25
 41
50.00000000000155
 71
    5
 72
    1
  1
500
  7
standard
210
0
220
0
230
1
 50
0
 73
    2
 44
1
  0
LINE
  5
118
100
AcDbEntity
  8
Cotas
  6
ByBlock
 62
    0
370
   -2
100
AcDbLine
 10
30
 20
686.25
 11
30
 21
762.5
  0
LINE
  5
119
100
AcDbEntity
  8
Cotas
  6
ByBlock
 62
    0
370
   -2
100
AcDbLine
 10
530
 20
686.25
 11
530
 21
762.5
  0
ENDBLK
  5
77
330
75
100
AcDbEntity
  8
0
100
AcDbBlockEnd
  0
BLOCK
  5
79
330
78
100
AcDbEntity
  8
0
100
AcDbBlockBegin
  2
*D1
 70
    1
 10
0
 20
0
  3
*D1
  1

  0
LINE
  5
11A
100
AcDbEntity
  8
Cotas
  6
ByBlock
 62
    0
370
   -2
100
AcDbLine
 10
-200
 20
1220
 11
-200
 21
0
  0
SOLID
  5
11B
100
AcDbEntity
  8
Cotas
  6
ByBlock
 62
    0
370
   -2
100
AcDbTrace
 10
-200
 20
1220
 30
0
 11
-195.8371534222716
 21
1195
 31
0
 12
-204.1628465777284
 22
1195
 32
0
 13
-204.1628465777284
 23
1195
 33
0
  0
SOLID
  5
11C
100
AcDbEntity
  8
Cotas
  6
ByBlock
 62
    0
370
   -2
100
AcDbTrace
 10
-200
 20
0
 30
0
 11
-204.1628465777284
 21
25
 31
0
 12
-195.8371534222716
 22
25
 32
0
 13
-195.8371534222716
 23
25
 33
0
  0
MTEXT
  5
11D
100
AcDbEntity
  8
Cotas
  6
CONTINUOUS
 62
    0
370
   -2
100
AcDbMText
 10
-218.75
 20
610
 30
0
 40
25
 41
63.88888888888889
 71
    5
 72
    1
  1
1220
  7
standard
210
0
220
0
230
1
 50
90
 73
    2
 44
1
  0
LINE
  5
11E
100
AcDbEntity
  8
Cotas
  6
ByBlock
 62
    0
370
   -2
100
AcDbLine
 10
-36.25
 20
1220
 11
-212.5
 21
1220
  0
LINE
  5
11F
100
AcDbEntity
  8
Cotas
  6
ByBlock
 62
    0
370
   -2
100
AcDbLine
 10
-36.25
 20
7.654042494670958e-16
 11
-212.5
 21
1.530808498934192e-15
  0
ENDBLK
  5
7A
330
78
100
AcDbEntity
  8
0
100
AcDbBlockEnd
  0
BLOCK
  5
7C
330
7B
100
AcDbEntity
  8
0
100
AcDbBlockBegin
  2
*D14
 70
    1
 10
0
 20
0
  3
*D14
  1

  0
LINE
  5
120
100
AcDbEntity
  8
Cotas
  6
ByBlock
 62
    0
370
   -2
100
AcDbLine
 10
1240.673671100895
 20
599.7397172059925
 11
1269.99138382179
 21
586.0686635399851
  0
LINE
  5
121
100
AcDbEntity
  8
Cotas
  6
ByBlock
 62
    0
370
   -2
100
AcDbLine
 10
1295.664425170895
 20
717.6679449429924
 11
1324.98213789179
 21
703.996891276985
  0
LINE
  5
122
100
AcDbEntity
  8
Cotas
  6
ByBlock
 62
    0
370
   -2
100
AcDbLine
 10
1258.66253348
 20
591.3513853700001
 11
1313.65328755
 21
709.279613107
  0
SOLID
  5
123
100
AcDbEntity
  8
Cotas
  6
ByBlock
 62
    0
370
   -2
100
AcDbTrace
 10
1258.66253348
 20
591.3513853700001
 30
0
 11
1265.455155870036
 21
615.7683788928744
 31
0
 12
1273.000798410023
 22
612.2497932142873
 32
0
 13
1273.000798410023
 23
612.2497932142873
 33
0
  0
SOLID
  5
124
100
AcDbEntity
  8
Cotas
  6
ByBlock
 62
    0
370
   -2
100
AcDbTrace
 10
1313.65328755
 20
709.279613107
 30
0
 11
1306.860665159963
 21
684.8626195841258
 31
0
 12
1299.315022619976
 22
688.3812052627129
 32
0
 13
1299.315022619976
 23
688.3812052627129
 33
0
  0
MTEXT
  5
125
100
AcDbEntity
  8
Cotas
  6
CONTINUOUS
 62
    0
370
   -2
100
AcDbMText
 10
1269.164635002314
 20
658.2395819835225
 30
0
 40
25
 41
44.44444444444599
 71
    5
 72
    1
  1
130
  7
standard
210
0
220
0
230
1
 50
65.00003257919097
 73
    2
 44
1
  0
ENDBLK
  5
7D
330
7B
100
AcDbEntity
  8
0
100
AcDbBlockEnd
  0
BLOCK
  5
7F
330
7E
100
AcDbEntity
  8
0
100
AcDbBlockBegin
  2
*D39
 70
    1
 10
0
 20
0
  3
*D39
  1

  0
LINE
  5
126
100
AcDbEntity
  8
Cotas
  6
ByBlock
 62
    0
370
   -2
100
AcDbLine
 10
2978.333333333333
 20
435
 11
2978.333333333333
 21
365
  0
SOLID
  5
127
100
AcDbEntity
  8
Cotas
  6
ByBlock
 62
    0
370
   -2
100
AcDbTrace
 10
2978.333333333333
 20
435
 30
0
 11
2982.496179911062
 21
410
 31
0
 12
2974.170486755605
 22
410
 32
0
 13
2974.170486755605
 23
410
 33
0
  0
SOLID
  5
128
100
AcDbEntity
  8
Cotas
  6
ByBlock
 62
    0
370
   -2
100
AcDbTrace
 10
2978.333333333333
 20
365
 30
0
 11
2974.170486755605
 21
390
 31
0
 12
2982.496179911062
 22
390
 32
0
 13
2982.496179911062
 23
390
 33
0
  0
MTEXT
  5
129
100
AcDbEntity
  8
Cotas
  6
CONTINUOUS
 62
    0
370
   -2
100
AcDbMText
 10
2959.583333333333
 20
400
 30
0
 40
25
 41
30.55555555555555
 71
    5
 72
    1
  1
70
  7
standard
210
0
220
0
230
1
 50
90
 73
    2
 44
1
  0
LINE
  5
12A
100
AcDbEntity
  8
Cotas
  6
ByBlock
 62
    0
370
   -2
100
AcDbLine
 10
3022.083333333333
 20
435
 11
2965.833333333333
 21
435
  0
LINE
  5
12B
100
AcDbEntity
  8
Cotas
  6
ByBlock
 62
    0
370
   -2
100
AcDbLine
 10
3022.083333333333
 20
365
 11
2965.833333333333
 21
365
  0
ENDBLK
  5
80
330
7E
100
AcDbEntity
  8
0
100
AcDbBlockEnd
  0
BLOCK
  5
82
330
81
100
AcDbEntity
  8
0
100
AcDbBlockBegin
  2
*D27
 70
    1
 10
0
 20
0
  3
*D27
  1

  0
LINE
  5
12C
100
AcDbEntity
  8
Cotas
  6
ByBlock
 62
    0
370
   -2
100
AcDbLine
 10
2590
 20
970
 11
2590
 21
610
  0
SOLID
  5
12D
100
AcDbEntity
  8
Cotas
  6
ByBlock
 62
    0
370
   -2
100
AcDbTrace
 10
2590
 20
970
 30
0
 11
2594.162846577728
 21
945
 31
0
 12
2585.837153422272
 22
945
 32
0
 13
2585.837153422272
 23
945
 33
0
  0
SOLID
  5
12E
100
AcDbEntity
  8
Cotas
  6
ByBlock
 62
    0
370
   -2
100
AcDbTrace
 10
2590
 20
610
 30
0
 11
2585.837153422272
 21
635
 31
0
 12
2594.162846577728
 22
635
 32
0
 13
2594.162846577728
 23
635
 33
0
  0
MTEXT
  5
12F
100
AcDbEntity
  8
Cotas
  6
CONTINUOUS
 62
    0
370
   -2
100
AcDbMText
 10
2571.25
 20
790
 30
0
 40
25
 41
50.0000000000031
 71
    5
 72
    1
  1
360
  7
standard
210
0
220
0
230
1
 50
90
 73
    2
 44
1
  0
LINE
  5
130
100
AcDbEntity
  8
Cotas
  6
ByBlock
 62
    0
370
   -2
100
AcDbLine
 10
2536.25
 20
970
 11
2602.5
 21
970
  0
LINE
  5
131
100
AcDbEntity
  8
Cotas
  6
ByBlock
 62
    0
370
   -2
100
AcDbLine
 10
2536.25
 20
610
 11
2602.5
 21
610
  0
ENDBLK
  5
83
330
81
100
AcDbEntity
  8
0
100
AcDbBlockEnd
  0
BLOCK
  5
85
330
84
100
AcDbEntity
  8
0
100
AcDbBlockBegin
  2
*D9
 70
    1
 10
0
 20
0
  3
*D9
  1

  0
LINE
  5
132
100
AcDbEntity
  8
Cotas
  6
ByBlock
 62
    0
370
   -2
100
AcDbLine
 10
560
 20
850
 11
1060
 21
850
  0
SOLID
  5
133
100
AcDbEntity
  8
Cotas
  6
ByBlock
 62
    0
370
   -2
100
AcDbTrace
 10
560
 20
850
 30
0
 11
585
 21
854.1628465777284
 31
0
 12
585
 22
845.8371534222716
 32
0
 13
585
 23
845.8371534222716
 33
0
  0
SOLID
  5
134
100
AcDbEntity
  8
Cotas
  6
ByBlock
 62
    0
370
   -2
100
AcDbTrace
 10
1060
 20
850
 30
0
 11
1035
 21
845.8371534222716
 31
0
 12
1035
 22
854.1628465777284
 32
0
 13
1035
 23
854.1628465777284
 33
0
  0
MTEXT
  5
135
100
AcDbEntity
  8
Cotas
  6
CONTINUOUS
 62
    0
370
   -2
100
AcDbMText
 10
810
 20
868.75
 30
0
 40
25
 41
50.00000000000155
 71
    5
 72
    1
  1
500
  7
standard
210
0
220
0
230
1
 50
0
 73
    2
 44
1
  0
LINE
  5
136
100
AcDbEntity
  8
Cotas
  6
ByBlock
 62
    0
370
   -2
100
AcDbLine
 10
560
 20
826.25
 11
560
 21
862.5
  0
LINE
  5
137
100
AcDbEntity
  8
Cotas
  6
ByBlock
 62
    0
370
   -2
100
AcDbLine
 10
1060
 20
826.25
 11
1060
 21
862.5
  0
ENDBLK
  5
86
330
84
100
AcDbEntity
  8
0
100
AcDbBlockEnd
  0
BLOCK
  5
88
330
87
100
AcDbEntity
  8
0
100
AcDbBlockBegin
  2
*D11
 70
    1
 10
0
 20
0
  3
*D11
  1

  0
LINE
  5
138
100
AcDbEntity
  8
Cotas
  6
ByBlock
 62
    0
370
   -2
100
AcDbLine
 10
560
 20
620
 11
1060
 21
620
  0
SOLID
  5
139
100
AcDbEntity
  8
Cotas
  6
ByBlock
 62
    0
370
   -2
100
AcDbTrace
 10
560
 20
620
 30
0
 11
585
 21
624.1628465777284
 31
0
 12
585
 22
615.8371534222716
 32
0
 13
585
 23
615.8371534222716
 33
0
  0
SOLID
  5
13A
100
AcDbEntity
  8
Cotas
  6
ByBlock
 62
    0
370
   -2
100
AcDbTrace
 10
1060
 20
620
 30
0
 11
1035
 21
615.8371534222716
 31
0
 12
1035
 22
624.1628465777284
 32
0
 13
1035
 23
624.1628465777284
 33
0
  0
MTEXT
  5
13B
100
AcDbEntity
  8
Cotas
  6
CONTINUOUS
 62
    0
370
   -2
100
AcDbMText
 10
810
 20
638.75
 30
0
 40
25
 41
50.00000000000155
 71
    5
 72
    1
  1
500
  7
standard
210
0
220
0
230
1
 50
0
 73
    2
 44
1
  0
LINE
  5
13C
100
AcDbEntity
  8
Cotas
  6
ByBlock
 62
    0
370
   -2
100
AcDbLine
 10
560
 20
596.25
 11
560
 21
632.5
  0
LINE
  5
13D
100
AcDbEntity
  8
Cotas
  6
ByBlock
 62
    0
370
   -2
100
AcDbLine
 10
1060
 20
596.25
 11
1060
 21
632.5
  0
ENDBLK
  5
89
330
87
100
AcDbEntity
  8
0
100
AcDbBlockEnd
  0
BLOCK
  5
8B
330
8A
100
AcDbEntity
  8
0
100
AcDbBlockBegin
  2
*D33
 70
    1
 10
0
 20
0
  3
*D33
  1

  0
LINE
  5
13E
100
AcDbEntity
  8
Cotas
  6
ByBlock
 62
    0
370
   -2
100
AcDbLine
 10
100
 20
1180
 11
100
 21
680
  0
SOLID
  5
13F
100
AcDbEntity
  8
Cotas
  6
ByBlock
 62
    0
370
   -2
100
AcDbTrace
 10
100
 20
1180
 30
0
 11
104.1628465777284
 21
1155
 31
0
 12
95.8371534222716
 22
1155
 32
0
 13
95.8371534222716
 23
1155
 33
0
  0
SOLID
  5
140
100
AcDbEntity
  8
Cotas
  6
ByBlock
 62
    0
370
   -2
100
AcDbTrace
 10
100
 20
680
 30
0
 11
95.8371534222716
 21
705
 31
0
 12
104.1628465777284
 22
705
 32
0
 13
104.1628465777284
 23
705
 33
0
  0
MTEXT
  5
141
100
AcDbEntity
  8
Cotas
  6
CONTINUOUS
 62
    0
370
   -2
100
AcDbMText
 10
81.25
 20
930
 30
0
 40
25
 41
50.00000000000155
 71
    5
 72
    1
  1
500
  7
standard
210
0
220
0
230
1
 50
90
 73
    2
 44
1
  0
LINE
  5
142
100
AcDbEntity
  8
Cotas
  6
ByBlock
 62
    0
370
   -2
100
AcDbLine
 10
36.25
 20
1180
 11
112.5
 21
1180
  0
LINE
  5
143
100
AcDbEntity
  8
Cotas
  6
ByBlock
 62
    0
370
   -2
100
AcDbLine
 10
36.25
 20
680
 11
112.5
 21
680
  0
ENDBLK
  5
8C
330
8A
100
AcDbEntity
  8
0
100
AcDbBlockEnd
  0
BLOCK
  5
8E
330
8D
100
AcDbEntity
  8
0
100
AcDbBlockBegin
  2
*D3
 70
    1
 10
0
 20
0
  3
*D3
  1

  0
LINE
  5
144
100
AcDbEntity
  8
Cotas
  6
ByBlock
 62
    0
370
   -2
100
AcDbLine
 10
470
 20
650
 11
470
 21
515
  0
SOLID
  5
145
100
AcDbEntity
  8
Cotas
  6
ByBlock
 62
    0
370
   -2
100
AcDbTrace
 10
470
 20
650
 30
0
 11
474.1628465777284
 21
625
 31
0
 12
465.8371534222716
 22
625
 32
0
 13
465.8371534222716
 23
625
 33
0
  0
SOLID
  5
146
100
AcDbEntity
  8
Cotas
  6
ByBlock
 62
    0
370
   -2
100
AcDbTrace
 10
470
 20
515
 30
0
 11
465.8371534222716
 21
540
 31
0
 12
474.1628465777284
 22
540
 32
0
 13
474.1628465777284
 23
540
 33
0
  0
MTEXT
  5
147
100
AcDbEntity
  8
Cotas
  6
CONTINUOUS
 62
    0
370
   -2
100
AcDbMText
 10
451.25
 20
582.5
 30
0
 40
25
 41
44.44444444444755
 71
    5
 72
    1
  1
135
  7
standard
210
0
220
0
230
1
 50
90
 73
    2
 44
1
  0
LINE
  5
148
100
AcDbEntity
  8
Cotas
  6
ByBlock
 62
    0
370
   -2
100
AcDbLine
 10
523.75
 20
650
 11
457.5
 21
650
  0
LINE
  5
149
100
AcDbEntity
  8
Cotas
  6
ByBlock
 62
    0
370
   -2
100
AcDbLine
 10
523.75
 20
515
 11
457.5
 21
515
  0
ENDBLK
  5
8F
330
8D
100
AcDbEntity
  8
0
100
AcDbBlockEnd
  0
BLOCK
  5
91
330
90
100
AcDbEntity
  8
0
100
AcDbBlockBegin
  2
*D25
 70
    1
 10
0
 20
0
  3
*D25
  1

  0
LINE
  5
14A
100
AcDbEntity
  8
Cotas
  6
ByBlock
 62
    0
370
   -2
100
AcDbLine
 10
1110.03484812
 20
350
 11
1510.03484812
 21
350
  0
SOLID
  5
14B
100
AcDbEntity
  8
Cotas
  6
ByBlock
 62
    0
370
   -2
100
AcDbTrace
 10
1110.03484812
 20
350
 30
0
 11
1135.03484812
 21
354.1628465777284
 31
0
 12
1135.03484812
 22
345.8371534222716
 32
0
 13
1135.03484812
 23
345.8371534222716
 33
0
  0
SOLID
  5
14C
100
AcDbEntity
  8
Cotas
  6
ByBlock
 62
    0
370
   -2
100
AcDbTrace
 10
1510.03484812
 20
350
 30
0
 11
1485.03484812
 21
345.8371534222716
 31
0
 12
1485.03484812
 22
354.1628465777284
 32
0
 13
1485.03484812
 23
354.1628465777284
 33
0
  0
MTEXT
  5
14D
100
AcDbEntity
  8
Cotas
  6
CONTINUOUS
 62
    0
370
   -2
100
AcDbMText
 10
1310.03484812
 20
368.75
 30
0
 40
25
 41
52.77777777777777
 71
    5
 72
    1
  1
400
  7
standard
210
0
220
0
230
1
 50
0
 73
    2
 44
1
  0
LINE
  5
14E
100
AcDbEntity
  8
Cotas
  6
ByBlock
 62
    0
370
   -2
100
AcDbLine
 10
1110.03484812
 20
383.068808652
 11
1110.03484812
 21
337.5
  0
LINE
  5
14F
100
AcDbEntity
  8
Cotas
  6
ByBlock
 62
    0
370
   -2
100
AcDbLine
 10
1510.03484812
 20
383.068808652
 11
1510.03484812
 21
337.5
  0
ENDBLK
  5
92
330
90
100
AcDbEntity
  8
0
100
AcDbBlockEnd
  0
BLOCK
  5
94
330
93
100
AcDbEntity
  8
0
100
AcDbBlockBegin
  2
*D15
 70
    1
 10
0
 20
0
  3
*D15
  1

  0
LINE
  5
150
100
AcDbEntity
  8
Cotas
  6
ByBlock
 62
    0
370
   -2
100
AcDbLine
 10
1590
 20
1050
 11
1590
 21
1180
  0
SOLID
  5
151
100
AcDbEntity
  8
Cotas
  6
ByBlock
 62
    0
370
   -2
100
AcDbTrace
 10
1590
 20
1050
 30
0
 11
1585.837153422272
 21
1075
 31
0
 12
1594.162846577728
 22
1075
 32
0
 13
1594.162846577728
 23
1075
 33
0
  0
SOLID
  5
152
100
AcDbEntity
  8
Cotas
  6
ByBlock
 62
    0
370
   -2
100
AcDbTrace
 10
1590
 20
1180
 30
0
 11
1594.162846577728
 21
1155
 31
0
 12
1585.837153422272
 22
1155
 32
0
 13
1585.837153422272
 23
1155
 33
0
  0
MTEXT
  5
153
100
AcDbEntity
  8
Cotas
  6
CONTINUOUS
 62
    0
370
   -2
100
AcDbMText
 10
1571.25
 20
1115
 30
0
 40
25
 41
44.44444444444599
 71
    5
 72
    1
  1
130
  7
standard
210
0
220
0
230
1
 50
90
 73
    2
 44
1
  0
LINE
  5
154
100
AcDbEntity
  8
Cotas
  6
ByBlock
 62
    0
370
   -2
100
AcDbLine
 10
1456.25
 20
1050
 11
1602.5
 21
1050
  0
LINE
  5
155
100
AcDbEntity
  8
Cotas
  6
ByBlock
 62
    0
370
   -2
100
AcDbLine
 10
1456.25
 20
1180
 11
1602.5
 21
1180
  0
ENDBLK
  5
95
330
93
100
AcDbEntity
  8
0
100
AcDbBlockEnd
  0
BLOCK
  5
97
330
96
100
AcDbEntity
  8
0
100
AcDbBlockBegin
  2
*D38
 70
    1
 10
0
 20
0
  3
*D38
  1

  0
LINE
  5
156
100
AcDbEntity
  8
Cotas
  6
ByBlock
 62
    0
370
   -2
100
AcDbLine
 10
2530
 20
460
 11
3030
 21
460
  0
SOLID
  5
157
100
AcDbEntity
  8
Cotas
  6
ByBlock
 62
    0
370
   -2
100
AcDbTrace
 10
2530
 20
460
 30
0
 11
2555
 21
464.1628465777284
 31
0
 12
2555
 22
455.8371534222716
 32
0
 13
2555
 23
455.8371534222716
 33
0
  0
SOLID
  5
158
100
AcDbEntity
  8
Cotas
  6
ByBlock
 62
    0
370
   -2
100
AcDbTrace
 10
3030
 20
460
 30
0
 11
3005
 21
455.8371534222716
 31
0
 12
3005
 22
464.1628465777284
 32
0
 13
3005
 23
464.1628465777284
 33
0
  0
MTEXT
  5
159
100
AcDbEntity
  8
Cotas
  6
CONTINUOUS
 62
    0
370
   -2
100
AcDbMText
 10
2780
 20
480
 30
0
 40
25
 41
50.00000000000155
 71
    5
 72
    1
  1
500
  7
standard
210
0
220
0
230
1
 50
0
 73
    2
 44
1
  0
LINE
  5
15A
100
AcDbEntity
  8
Cotas
  6
ByBlock
 62
    0
370
   -2
100
AcDbLine
 10
2530
 20
446.25
 11
2530
 21
472.5
  0
LINE
  5
15B
100
AcDbEntity
  8
Cotas
  6
ByBlock
 62
    0
370
   -2
100
AcDbLine
 10
3030
 20
446.25
 11
3030
 21
472.5
  0
ENDBLK
  5
98
330
96
100
AcDbEntity
  8
0
100
AcDbBlockEnd
  0
BLOCK
  5
9A
330
99
100
AcDbEntity
  8
0
100
AcDbBlockBegin
  2
*D37
 70
    1
 10
0
 20
0
  3
*D37
  1

  0
LINE
  5
15C
100
AcDbEntity
  8
Cotas
  6
ByBlock
 62
    0
370
   -2
100
AcDbLine
 10
0
 20
1404.341015101425
 11
2440
 21
1404.341015101425
  0
SOLID
  5
15D
100
AcDbEntity
  8
Cotas
  6
ByBlock
 62
    0
370
   -2
100
AcDbTrace
 10
0
 20
1404.341015101425
 30
0
 11
25
 21
1408.503861679153
 31
0
 12
25
 22
1400.178168523697
 32
0
 13
25
 23
1400.178168523697
 33
0
  0
SOLID
  5
15E
100
AcDbEntity
  8
Cotas
  6
ByBlock
 62
    0
370
   -2
100
AcDbTrace
 10
2440
 20
1404.341015101425
 30
0
 11
2415
 21
1400.178168523697
 31
0
 12
2415
 22
1408.503861679153
 32
0
 13
2415
 23
1408.503861679153
 33
0
  0
MTEXT
  5
15F
100
AcDbEntity
  8
Cotas
  6
CONTINUOUS
 62
    0
370
   -2
100
AcDbMText
 10
1220
 20
1423.091015101425
 30
0
 40
25
 41
75
 71
    5
 72
    1
  1
2440
  7
standard
210
0
220
0
230
1
 50
0
 73
    2
 44
1
  0
LINE
  5
160
100
AcDbEntity
  8
Cotas
  6
ByBlock
 62
    0
370
   -2
100
AcDbLine
 10
3.827021247335479e-16
 20
1226.25
 11
7.654042494670958e-16
 21
1416.841015101425
  0
LINE
  5
161
100
AcDbEntity
  8
Cotas
  6
ByBlock
 62
    0
370
   -2
100
AcDbLine
 10
2440
 20
1226.25
 11
2440
 21
1416.841015101425
  0
ENDBLK
  5
9B
330
99
100
AcDbEntity
  8
0
100
AcDbBlockEnd
  0
BLOCK
  5
9D
330
9C
100
AcDbEntity
  8
0
100
AcDbBlockBegin
  2
*D7
 70
    1
 10
0
 20
0
  3
*D7
  1

  0
LINE
  5
162
100
AcDbEntity
  8
Cotas
  6
ByBlock
 62
    0
370
   -2
100
AcDbLine
 10
30
 20
80
 11
530
 21
80
  0
SOLID
  5
163
100
AcDbEntity
  8
Cotas
  6
ByBlock
 62
    0
370
   -2
100
AcDbTrace
 10
30
 20
80
 30
0
 11
55
 21
84.1628465777284
 31
0
 12
55
 22
75.8371534222716
 32
0
 13
55
 23
75.8371534222716
 33
0
  0
SOLID
  5
164
100
AcDbEntity
  8
Cotas
  6
ByBlock
 62
    0
370
   -2
100
AcDbTrace
 10
530
 20
80
 30
0
 11
505
 21
75.8371534222716
 31
0
 12
505
 22
84.1628465777284
 32
0
 13
505
 23
84.1628465777284
 33
0
  0
MTEXT
  5
165
100
AcDbEntity
  8
Cotas
  6
CONTINUOUS
 62
    0
370
   -2
100
AcDbMText
 10
280
 20
98.75
 30
0
 40
25
 41
50.00000000000155
 71
    5
 72
    1
  1
500
  7
standard
210
0
220
0
230
1
 50
0
 73
    2
 44
1
  0
LINE
  5
166
100
AcDbEntity
  8
Cotas
  6
ByBlock
 62
    0
370
   -2
100
AcDbLine
 10
30
 20
66.25
 11
30
 21
92.5
  0
LINE
  5
167
100
AcDbEntity
  8
Cotas
  6
ByBlock
 62
    0
370
   -2
100
AcDbLine
 10
530
 20
66.25
 11
530
 21
92.5
  0
ENDBLK
  5
9E
330
9C
100
AcDbEntity
  8
0
100
AcDbBlockEnd
  0
BLOCK
  5
A0
330
9F
100
AcDbEntity
  8
0
100
AcDbBlockBegin
  2
*D34
 70
    1
 10
0
 20
0
  3
*D34
  1

  0
LINE
  5
168
100
AcDbEntity
  8
Cotas
  6
ByBlock
 62
    0
370
   -2
100
AcDbLine
 10
30
 20
270
 11
530
 21
270
  0
SOLID
  5
169
100
AcDbEntity
  8
Cotas
  6
ByBlock
 62
    0
370
   -2
100
AcDbTrace
 10
30
 20
270
 30
0
 11
55
 21
274.1628465777284
 31
0
 12
55
 22
265.8371534222716
 32
0
 13
55
 23
265.8371534222716
 33
0
  0
SOLID
  5
16A
100
AcDbEntity
  8
Cotas
  6
ByBlock
 62
    0
370
   -2
100
AcDbTrace
 10
530
 20
270
 30
0
 11
505
 21
265.8371534222716
 31
0
 12
505
 22
274.1628465777284
 32
0
 13
505
 23
274.1628465777284
 33
0
  0
MTEXT
  5
16B
100
AcDbEntity
  8
Cotas
  6
CONTINUOUS
 62
    0
370
   -2
100
AcDbMText
 10
280
 20
288.75
 30
0
 40
25
 41
50.00000000000155
 71
    5
 72
    1
  1
500
  7
standard
210
0
220
0
230
1
 50
0
 73
    2
 44
1
  0
LINE
  5
16C
100
AcDbEntity
  8
Cotas
  6
ByBlock
 62
    0
370
   -2
100
AcDbLine
 10
30
 20
266.25
 11
30
 21
282.5
  0
LINE
  5
16D
100
AcDbEntity
  8
Cotas
  6
ByBlock
 62
    0
370
   -2
100
AcDbLine
 10
530
 20
266.25
 11
530
 21
282.5
  0
ENDBLK
  5
A1
330
9F
100
AcDbEntity
  8
0
100
AcDbBlockEnd
  0
BLOCK
  5
A3
330
A2
100
AcDbEntity
  8
0
100
AcDbBlockBegin
  2
*D19
 70
    1
 10
0
 20
0
  3
*D19
  1

  0
LINE
  5
16E
100
AcDbEntity
  8
Cotas
  6
ByBlock
 62
    0
370
   -2
100
AcDbLine
 10
1141.18192814
 20
670
 11
1141.18192814
 21
1180
  0
SOLID
  5
16F
100
AcDbEntity
  8
Cotas
  6
ByBlock
 62
    0
370
   -2
100
AcDbTrace
 10
1141.18192814
 20
670
 30
0
 11
1137.019081562272
 21
695
 31
0
 12
1145.344774717729
 22
695
 32
0
 13
1145.344774717729
 23
695
 33
0
  0
SOLID
  5
170
100
AcDbEntity
  8
Cotas
  6
ByBlock
 62
    0
370
   -2
100
AcDbTrace
 10
1141.18192814
 20
1180
 30
0
 11
1145.344774717729
 21
1155
 31
0
 12
1137.019081562272
 22
1155
 32
0
 13
1137.019081562272
 23
1155
 33
0
  0
MTEXT
  5
171
100
AcDbEntity
  8
Cotas
  6
CONTINUOUS
 62
    0
370
   -2
100
AcDbMText
 10
1122.43192814
 20
925
 30
0
 40
25
 41
44.44444444444599
 71
    5
 72
    1
  1
510
  7
standard
210
0
220
0
230
1
 50
90
 73
    2
 44
1
  0
LINE
  5
172
100
AcDbEntity
  8
Cotas
  6
ByBlock
 62
    0
370
   -2
100
AcDbLine
 10
1096.25
 20
670
 11
1153.68192814
 21
670
  0
LINE
  5
173
100
AcDbEntity
  8
Cotas
  6
ByBlock
 62
    0
370
   -2
100
AcDbLine
 10
1096.25
 20
1180
 11
1153.68192814
 21
1180
  0
ENDBLK
  5
A4
330
A2
100
AcDbEntity
  8
0
100
AcDbBlockEnd
  0
BLOCK
  5
A6
330
A5
100
AcDbEntity
  8
0
100
AcDbBlockBegin
  2
*D8
 70
    1
 10
0
 20
0
  3
*D8
  1

  0
LINE
  5
174
100
AcDbEntity
  8
Cotas
  6
ByBlock
 62
    0
370
   -2
100
AcDbLine
 10
490
 20
230
 11
490
 21
60
  0
SOLID
  5
175
100
AcDbEntity
  8
Cotas
  6
ByBlock
 62
    0
370
   -2
100
AcDbTrace
 10
490
 20
230
 30
0
 11
494.1628465777284
 21
205
 31
0
 12
485.8371534222716
 22
205
 32
0
 13
485.8371534222716
 23
205
 33
0
  0
SOLID
  5
176
100
AcDbEntity
  8
Cotas
  6
ByBlock
 62
    0
370
   -2
100
AcDbTrace
 10
490
 20
60
 30
0
 11
485.8371534222716
 21
85
 31
0
 12
494.1628465777284
 22
85
 32
0
 13
494.1628465777284
 23
85
 33
0
  0
MTEXT
  5
177
100
AcDbEntity
  8
Cotas
  6
CONTINUOUS
 62
    0
370
   -2
100
AcDbMText
 10
471.25
 20
145
 30
0
 40
25
 41
44.44444444444444
 71
    5
 72
    1
  1
170
  7
standard
210
0
220
0
230
1
 50
90
 73
    2
 44
1
  0
LINE
  5
178
100
AcDbEntity
  8
Cotas
  6
ByBlock
 62
    0
370
   -2
100
AcDbLine
 10
523.75
 20
230
 11
477.5
 21
230
  0
LINE
  5
179
100
AcDbEntity
  8
Cotas
  6
ByBlock
 62
    0
370
   -2
100
AcDbLine
 10
523.75
 20
60
 11
477.5
 21
60
  0
ENDBLK
  5
A7
330
A5
100
AcDbEntity
  8
0
100
AcDbBlockEnd
  0
BLOCK
  5
A9
330
A8
100
AcDbEntity
  8
0
100
AcDbBlockBegin
  2
*D4
 70
    1
 10
0
 20
0
  3
*D4
  1

  0
LINE
  5
17A
100
AcDbEntity
  8
Cotas
  6
ByBlock
 62
    0
370
   -2
100
AcDbLine
 10
530
 20
550
 11
30
 21
550
  0
SOLID
  5
17B
100
AcDbEntity
  8
Cotas
  6
ByBlock
 62
    0
370
   -2
100
AcDbTrace
 10
530
 20
550
 30
0
 11
505
 21
545.8371534222716
 31
0
 12
505
 22
554.1628465777284
 32
0
 13
505
 23
554.1628465777284
 33
0
  0
SOLID
  5
17C
100
AcDbEntity
  8
Cotas
  6
ByBlock
 62
    0
370
   -2
100
AcDbTrace
 10
30
 20
550
 30
0
 11
55
 21
554.1628465777284
 31
0
 12
55
 22
545.8371534222716
 32
0
 13
55
 23
545.8371534222716
 33
0
  0
MTEXT
  5
17D
100
AcDbEntity
  8
Cotas
  6
CONTINUOUS
 62
    0
370
   -2
100
AcDbMText
 10
280
 20
568.75
 30
0
 40
25
 41
50.00000000000155
 71
    5
 72
    1
  1
500
  7
standard
210
0
220
0
230
1
 50
360
 73
    2
 44
1
  0
LINE
  5
17E
100
AcDbEntity
  8
Cotas
  6
ByBlock
 62
    0
370
   -2
100
AcDbLine
 10
530
 20
521.25
 11
530
 21
562.5
  0
LINE
  5
17F
100
AcDbEntity
  8
Cotas
  6
ByBlock
 62
    0
370
   -2
100
AcDbLine
 10
30
 20
521.25
 11
30
 21
562.5
  0
ENDBLK
  5
AA
330
A8
100
AcDbEntity
  8
0
100
AcDbBlockEnd
  0
BLOCK
  5
AC
330
AB
100
AcDbEntity
  8
0
100
AcDbBlockBegin
  2
*D28
 70
    1
 10
0
 20
0
  3
*D28
  1

  0
LINE
  5
180
100
AcDbEntity
  8
Cotas
  6
ByBlock
 62
    0
370
   -2
100
AcDbLine
 10
3030
 20
650
 11
2530
 21
650
  0
SOLID
  5
181
100
AcDbEntity
  8
Cotas
  6
ByBlock
 62
    0
370
   -2
100
AcDbTrace
 10
3030
 20
650
 30
0
 11
3005
 21
645.8371534222716
 31
0
 12
3005
 22
654.1628465777284
 32
0
 13
3005
 23
654.1628465777284
 33
0
  0
SOLID
  5
182
100
AcDbEntity
  8
Cotas
  6
ByBlock
 62
    0
370
   -2
100
AcDbTrace
 10
2530
 20
650
 30
0
 11
2555
 21
654.1628465777284
 31
0
 12
2555
 22
645.8371534222716
 32
0
 13
2555
 23
645.8371534222716
 33
0
  0
MTEXT
  5
183
100
AcDbEntity
  8
Cotas
  6
CONTINUOUS
 62
    0
370
   -2
100
AcDbMText
 10
2780
 20
668.75
 30
0
 40
25
 41
50.00000000000155
 71
    5
 72
    1
  1
500
  7
standard
210
0
220
0
230
1
 50
360
 73
    2
 44
1
  0
LINE
  5
184
100
AcDbEntity
  8
Cotas
  6
ByBlock
 62
    0
370
   -2
100
AcDbLine
 10
3030
 20
616.25
 11
3030
 21
662.5
  0
LINE
  5
185
100
AcDbEntity
  8
Cotas
  6
ByBlock
 62
    0
370
   -2
100
AcDbLine
 10
2530
 20
616.25
 11
2530
 21
662.5
  0
ENDBLK
  5
AD
330
AB
100
AcDbEntity
  8
0
100
AcDbBlockEnd
  0
BLOCK
  5
AF
330
AE
100
AcDbEntity
  8
0
100
AcDbBlockBegin
  2
*D6
 70
    1
 10
0
 20
0
  3
*D6
  1

  0
LINE
  5
186
100
AcDbEntity
  8
Cotas
  6
ByBlock
 62
    0
370
   -2
100
AcDbLine
 10
530
 20
390
 11
30
 21
390
  0
SOLID
  5
187
100
AcDbEntity
  8
Cotas
  6
ByBlock
 62
    0
370
   -2
100
AcDbTrace
 10
530
 20
390
 30
0
 11
505
 21
385.8371534222716
 31
0
 12
505
 22
394.1628465777284
 32
0
 13
505
 23
394.1628465777284
 33
0
  0
SOLID
  5
188
100
AcDbEntity
  8
Cotas
  6
ByBlock
 62
    0
370
   -2
100
AcDbTrace
 10
30
 20
390
 30
0
 11
55
 21
394.1628465777284
 31
0
 12
55
 22
385.8371534222716
 32
0
 13
55
 23
385.8371534222716
 33
0
  0
MTEXT
  5
189
100
AcDbEntity
  8
Cotas
  6
CONTINUOUS
 62
    0
370
   -2
100
AcDbMText
 10
280
 20
408.75
 30
0
 40
25
 41
50.00000000000155
 71
    5
 72
    1
  1
500
  7
standard
210
0
220
0
230
1
 50
360
 73
    2
 44
1
  0
LINE
  5
18A
100
AcDbEntity
  8
Cotas
  6
ByBlock
 62
    0
370
   -2
100
AcDbLine
 10
530
 20
361.25
 11
530
 21
402.5
  0
LINE
  5
18B
100
AcDbEntity
  8
Cotas
  6
ByBlock
 62
    0
370
   -2
100
AcDbLine
 10
30
 20
361.25
 11
30
 21
402.5
  0
ENDBLK
  5
B0
330
AE
100
AcDbEntity
  8
0
100
AcDbBlockEnd
  0
BLOCK
  5
B2
330
B1
100
AcDbEntity
  8
0
100
AcDbBlockBegin
  2
*D30
 70
    1
 10
0
 20
0
  3
*D30
  1

  0
LINE
  5
18C
100
AcDbEntity
  8
Cotas
  6
ByBlock
 62
    0
370
   -2
100
AcDbLine
 10
2570
 20
1180
 11
2570
 21
1010
  0
SOLID
  5
18D
100
AcDbEntity
  8
Cotas
  6
ByBlock
 62
    0
370
   -2
100
AcDbTrace
 10
2570
 20
1180
 30
0
 11
2574.162846577728
 21
1155
 31
0
 12
2565.837153422272
 22
1155
 32
0
 13
2565.837153422272
 23
1155
 33
0
  0
SOLID
  5
18E
100
AcDbEntity
  8
Cotas
  6
ByBlock
 62
    0
370
   -2
100
AcDbTrace
 10
2570
 20
1010
 30
0
 11
2565.837153422272
 21
1035
 31
0
 12
2574.162846577728
 22
1035
 32
0
 13
2574.162846577728
 23
1035
 33
0
  0
MTEXT
  5
18F
100
AcDbEntity
  8
Cotas
  6
CONTINUOUS
 62
    0
370
   -2
100
AcDbMText
 10
2551.25
 20
1095
 30
0
 40
25
 41
44.44444444444444
 71
    5
 72
    1
  1
170
  7
standard
210
0
220
0
230
1
 50
90
 73
    2
 44
1
  0
LINE
  5
190
100
AcDbEntity
  8
Cotas
  6
ByBlock
 62
    0
370
   -2
100
AcDbLine
 10
2536.25
 20
1180
 11
2582.5
 21
1180
  0
LINE
  5
191
100
AcDbEntity
  8
Cotas
  6
ByBlock
 62
    0
370
   -2
100
AcDbLine
 10
2536.25
 20
1010
 11
2582.5
 21
1010
  0
ENDBLK
  5
B3
330
B1
100
AcDbEntity
  8
0
100
AcDbBlockEnd
  0
BLOCK
  5
B5
330
B4
100
AcDbEntity
  8
0
100
AcDbBlockBegin
  2
*D21
 70
    1
 10
0
 20
0
  3
*D21
  1

  0
LINE
  5
192
100
AcDbEntity
  8
Cotas
  6
ByBlock
 62
    0
370
   -2
100
AcDbLine
 10
1359.361177019113
 20
969.5790914450258
 11
1330.043464288134
 21
983.2501451158515
  0
LINE
  5
193
100
AcDbEntity
  8
Cotas
  6
ByBlock
 62
    0
370
   -2
100
AcDbLine
 10
1304.370422949114
 20
851.650863709026
 11
1275.052710218134
 21
865.3219173798517
  0
LINE
  5
194
100
AcDbEntity
  8
Cotas
  6
ByBlock
 62
    0
370
   -2
100
AcDbLine
 10
1341.372314629907
 20
977.9674232857998
 11
1286.381560559907
 21
860.0391955498
  0
SOLID
  5
195
100
AcDbEntity
  8
Cotas
  6
ByBlock
 62
    0
370
   -2
100
AcDbTrace
 10
1341.372314629907
 20
977.9674232857998
 30
0
 11
1334.579692239791
 21
953.5504297629476
 31
0
 12
1327.034049699816
 22
957.0690154415591
 32
0
 13
1327.034049699816
 23
957.0690154415591
 33
0
  0
SOLID
  5
196
100
AcDbEntity
  8
Cotas
  6
ByBlock
 62
    0
370
   -2
100
AcDbTrace
 10
1286.381560559907
 20
860.0391955498
 30
0
 11
1293.174182950023
 21
884.4561890726521
 31
0
 12
1300.719825489998
 22
880.9376033940406
 32
0
 13
1300.719825489998
 23
880.9376033940406
 33
0
  0
MTEXT
  5
197
100
AcDbEntity
  8
Cotas
  6
CONTINUOUS
 62
    0
370
   -2
100
AcDbMText
 10
1296.883662082247
 20
926.9273921628775
 30
0
 40
25
 41
44.44444444444599
 71
    5
 72
    1
  1
130
  7
standard
210
0
220
0
230
1
 50
65.00003257900492
 73
    2
 44
1
  0
ENDBLK
  5
B6
330
B4
100
AcDbEntity
  8
0
100
AcDbBlockEnd
  0
BLOCK
  5
B8
330
B7
100
AcDbEntity
  8
0
100
AcDbBlockBegin
  2
*D40
 70
    1
 10
0
 20
0
  3
*D40
  1

  0
LINE
  5
198
100
AcDbEntity
  8
Cotas
  6
ByBlock
 62
    0
370
   -2
100
AcDbLine
 10
2528.333333333333
 20
316.25
 11
3028.333333333333
 21
316.25
  0
SOLID
  5
199
100
AcDbEntity
  8
Cotas
  6
ByBlock
 62
    0
370
   -2
100
AcDbTrace
 10
2528.333333333333
 20
316.25
 30
0
 11
2553.333333333333
 21
320.4128465777284
 31
0
 12
2553.333333333333
 22
312.0871534222716
 32
0
 13
2553.333333333333
 23
312.0871534222716
 33
0
  0
SOLID
  5
19A
100
AcDbEntity
  8
Cotas
  6
ByBlock
 62
    0
370
   -2
100
AcDbTrace
 10
3028.333333333333
 20
316.25
 30
0
 11
3003.333333333333
 21
312.0871534222716
 31
0
 12
3003.333333333333
 22
320.4128465777284
 32
0
 13
3003.333333333333
 23
320.4128465777284
 33
0
  0
MTEXT
  5
19B
100
AcDbEntity
  8
Cotas
  6
CONTINUOUS
 62
    0
370
   -2
100
AcDbMText
 10
2778.333333333333
 20
335
 30
0
 40
25
 41
50.00000000000155
 71
    5
 72
    1
  1
500
  7
standard
210
0
220
0
230
1
 50
0
 73
    2
 44
1
  0
LINE
  5
19C
100
AcDbEntity
  8
Cotas
  6
ByBlock
 62
    0
370
   -2
100
AcDbLine
 10
2528.333333333333
 20
312.5
 11
2528.333333333333
 21
328.75
  0
LINE
  5
19D
100
AcDbEntity
  8
Cotas
  6
ByBlock
 62
    0
370
   -2
100
AcDbLine
 10
3028.333333333333
 20
312.5
 11
3028.333333333333
 21
328.75
  0
ENDBLK
  5
B9
330
B7
100
AcDbEntity
  8
0
100
AcDbBlockEnd
  0
BLOCK
  5
BB
330
BA
100
AcDbEntity
  8
0
100
AcDbBlockBegin
  2
*D36
 70
    1
 10
0
 20
0
  3
*D36
  1

  0
LINE
  5
19E
100
AcDbEntity
  8
Cotas
  6
ByBlock
 62
    0
370
   -2
100
AcDbLine
 10
1060.03484812
 20
509.318808652
 11
1060.03484812
 21
389.318808652
  0
SOLID
  5
19F
100
AcDbEntity
  8
Cotas
  6
ByBlock
 62
    0
370
   -2
100
AcDbTrace
 10
1060.03484812
 20
509.318808652
 30
0
 11
1064.197694697729
 21
484.318808652
 31
0
 12
1055.872001542272
 22
484.318808652
 32
0
 13
1055.872001542272
 23
484.318808652
 33
0
  0
SOLID
  5
1A0
100
AcDbEntity
  8
Cotas
  6
ByBlock
 62
    0
370
   -2
100
AcDbTrace
 10
1060.03484812
 20
389.318808652
 30
0
 11
1055.872001542272
 21
414.318808652
 31
0
 12
1064.197694697729
 22
414.318808652
 32
0
 13
1064.197694697729
 23
414.318808652
 33
0
  0
MTEXT
  5
1A1
100
AcDbEntity
  8
Cotas
  6
CONTINUOUS
 62
    0
370
   -2
100
AcDbMText
 10
1041.28484812
 20
449.318808652
 30
0
 40
25
 41
44.44444444444444
 71
    5
 72
    1
  1
120
  7
standard
210
0
220
0
230
1
 50
90
 73
    2
 44
1
  0
LINE
  5
1A2
100
AcDbEntity
  8
Cotas
  6
ByBlock
 62
    0
370
   -2
100
AcDbLine
 10
1071.63094502
 20
509.318808652
 11
1047.53484812
 21
509.318808652
  0
LINE
  5
1A3
100
AcDbEntity
  8
Cotas
  6
ByBlock
 62
    0
370
   -2
100
AcDbLine
 10
1071.63094502
 20
389.318808652
 11
1047.53484812
 21
389.318808652
  0
ENDBLK
  5
BC
330
BA
100
AcDbEntity
  8
0
100
AcDbBlockEnd
  0
BLOCK
  5
BE
330
BD
100
AcDbEntity
  8
0
100
AcDbBlockBegin
  2
*D29
 70
    1
 10
0
 20
0
  3
*D29
  1

  0
LINE
  5
1A4
100
AcDbEntity
  8
Cotas
  6
ByBlock
 62
    0
370
   -2
100
AcDbLine
 10
2570
 20
570
 11
2570
 21
500
  0
SOLID
  5
1A5
100
AcDbEntity
  8
Cotas
  6
ByBlock
 62
    0
370
   -2
100
AcDbTrace
 10
2570
 20
570
 30
0
 11
2574.162846577728
 21
545
 31
0
 12
2565.837153422272
 22
545
 32
0
 13
2565.837153422272
 23
545
 33
0
  0
SOLID
  5
1A6
100
AcDbEntity
  8
Cotas
  6
ByBlock
 62
    0
370
   -2
100
AcDbTrace
 10
2570
 20
500
 30
0
 11
2565.837153422272
 21
525
 31
0
 12
2574.162846577728
 22
525
 32
0
 13
2574.162846577728
 23
525
 33
0
  0
MTEXT
  5
1A7
100
AcDbEntity
  8
Cotas
  6
CONTINUOUS
 62
    0
370
   -2
100
AcDbMText
 10
2551.25
 20
535
 30
0
 40
25
 41
30.55555555555555
 71
    5
 72
    1
  1
70
  7
standard
210
0
220
0
230
1
 50
90
 73
    2
 44
1
  0
LINE
  5
1A8
100
AcDbEntity
  8
Cotas
  6
ByBlock
 62
    0
370
   -2
100
AcDbLine
 10
2536.25
 20
570
 11
2582.5
 21
570
  0
LINE
  5
1A9
100
AcDbEntity
  8
Cotas
  6
ByBlock
 62
    0
370
   -2
100
AcDbLine
 10
2536.25
 20
500
 11
2582.5
 21
500
  0
ENDBLK
  5
BF
330
BD
100
AcDbEntity
  8
0
100
AcDbBlockEnd
  0
BLOCK
  5
C1
330
C0
100
AcDbEntity
  8
0
100
AcDbBlockBegin
  2
*D10
 70
    1
 10
0
 20
0
  3
*D10
  1

  0
LINE
  5
1AA
100
AcDbEntity
  8
Cotas
  6
ByBlock
 62
    0
370
   -2
100
AcDbLine
 10
1000
 20
820
 11
1000
 21
1180
  0
SOLID
  5
1AB
100
AcDbEntity
  8
Cotas
  6
ByBlock
 62
    0
370
   -2
100
AcDbTrace
 10
1000
 20
820
 30
0
 11
995.8371534222716
 21
845
 31
0
 12
1004.162846577728
 22
845
 32
0
 13
1004.162846577728
 23
845
 33
0
  0
SOLID
  5
1AC
100
AcDbEntity
  8
Cotas
  6
ByBlock
 62
    0
370
   -2
100
AcDbTrace
 10
1000
 20
1180
 30
0
 11
1004.162846577728
 21
1155
 31
0
 12
995.8371534222716
 22
1155
 32
0
 13
995.8371534222716
 23
1155
 33
0
  0
MTEXT
  5
1AD
100
AcDbEntity
  8
Cotas
  6
CONTINUOUS
 62
    0
370
   -2
100
AcDbMText
 10
981.25
 20
1000
 30
0
 40
25
 41
50.0000000000031
 71
    5
 72
    1
  1
360
  7
standard
210
0
220
0
230
1
 50
90
 73
    2
 44
1
  0
LINE
  5
1AE
100
AcDbEntity
  8
Cotas
  6
ByBlock
 62
    0
370
   -2
100
AcDbLine
 10
1053.75
 20
820
 11
987.5
 21
820
  0
LINE
  5
1AF
100
AcDbEntity
  8
Cotas
  6
ByBlock
 62
    0
370
   -2
100
AcDbLine
 10
1053.75
 20
1180
 11
987.5
 21
1180
  0
ENDBLK
  5
C2
330
C0
100
AcDbEntity
  8
0
100
AcDbBlockEnd
  0
BLOCK
  5
C4
330
C3
100
AcDbEntity
  8
0
100
AcDbBlockBegin
  2
*D22
 70
    1
 10
0
 20
0
  3
*D22
  1

  0
LINE
  5
1B0
100
AcDbEntity
  8
Cotas
  6
ByBlock
 62
    0
370
   -2
100
AcDbLine
 10
950.034848115
 20
559.318808652
 11
950.034848115
 21
389.318808652
  0
SOLID
  5
1B1
100
AcDbEntity
  8
Cotas
  6
ByBlock
 62
    0
370
   -2
100
AcDbTrace
 10
950.034848115
 20
559.318808652
 30
0
 11
954.1976946927284
 21
534.318808652
 31
0
 12
945.8720015372717
 22
534.318808652
 32
0
 13
945.8720015372717
 23
534.318808652
 33
0
  0
SOLID
  5
1B2
100
AcDbEntity
  8
Cotas
  6
ByBlock
 62
    0
370
   -2
100
AcDbTrace
 10
950.034848115
 20
389.318808652
 30
0
 11
945.8720015372717
 21
414.318808652
 31
0
 12
954.1976946927284
 22
414.318808652
 32
0
 13
954.1976946927284
 23
414.318808652
 33
0
  0
MTEXT
  5
1B3
100
AcDbEntity
  8
Cotas
  6
CONTINUOUS
 62
    0
370
   -2
100
AcDbMText
 10
931.284848115
 20
474.318808652
 30
0
 40
25
 41
44.44444444444444
 71
    5
 72
    1
  1
170
  7
standard
210
0
220
0
230
1
 50
90
 73
    2
 44
1
  0
LINE
  5
1B4
100
AcDbEntity
  8
Cotas
  6
ByBlock
 62
    0
370
   -2
100
AcDbLine
 10
1243.78484812
 20
559.318808652
 11
937.534848115
 21
559.318808652
  0
LINE
  5
1B5
100
AcDbEntity
  8
Cotas
  6
ByBlock
 62
    0
370
   -2
100
AcDbLine
 10
1243.78484812
 20
389.318808652
 11
937.534848115
 21
389.318808652
  0
ENDBLK
  5
C5
330
C3
100
AcDbEntity
  8
0
100
AcDbBlockEnd
  0
ENDSEC
  0
SECTION
  2
ENTITIES
  0
LINE
  5
1B6
100
AcDbEntity
  8
0
  6
ByLayer
 62
  256
370
   -1
100
AcDbLine
 10
0
 20
0
 11
2440
 21
0
  0
LINE
  5
1B7
100
AcDbEntity
  8
0
  6
ByLayer
 62
  256
370
   -1
100
AcDbLine
 10
2440
 20
0
 11
2440
 21
1220
  0
LINE
  5
1B8
100
AcDbEntity
  8
0
  6
ByLayer
 62
  256
370
   -1
100
AcDbLine
 10
2440
 20
1220
 11
0
 21
1220
  0
LINE
  5
1B9
100
AcDbEntity
  8
0
  6
ByLayer
 62
  256
370
   -1
100
AcDbLine
 10
0
 20
1220
 11
0
 21
0
  0
LINE
  5
1BA
100
AcDbEntity
  8
0
  6
ByLayer
 62
  256
370
   -1
100
AcDbLine
 10
30
 20
1180
 11
530
 21
1180
  0
LINE
  5
1BB
100
AcDbEntity
  8
0
  6
ByLayer
 62
  256
370
   -1
100
AcDbLine
 10
530
 20
1180
 11
530
 21
680
  0
LINE
  5
1BC
100
AcDbEntity
  8
0
  6
ByLayer
 62
  256
370
   -1
100
AcDbLine
 10
30
 20
680
 11
30
 21
1180
  0
LINE
  5
1BD
100
AcDbEntity
  8
0
  6
ByLayer
 62
  256
370
   -1
100
AcDbLine
 10
30
 20
680
 11
530
 21
680
  0
MTEXT
  5
1BE
100
AcDbEntity
  8
0
  6
ByLayer
 62
  256
370
   -1
100
AcDbMText
 10
150
 20
970
 30
0
 40
50
 41
299.9999893998925
 71
    1
 72
    1
  1
TRASERA
  7
standard
210
0
220
0
230
1
 50
0
 73
    2
 44
1
  0
DIMENSION
  5
1BF
100
AcDbEntity
  8
Cotas
  6
ByLayer
 62
  256
370
   -1
100
AcDbDimension
  2
*D1
 10
-200
 20
2.08189955855e-14
 30
0
 11
-218.75
 21
610
 31
0
 70
   32
 71
    5
  3
Standard
 53
0
210
0
220
0
230
1
100
AcDbAlignedDimension
 13
-30
 23
1220
 33
0
 14
-30
 24
0
 34
0
 50
90
100
AcDbRotatedDimension
  0
DIMENSION
  5
1C0
100
AcDbEntity
  8
Cotas
  6
ByLayer
 62
  256
370
   -1
100
AcDbDimension
  2
*D2
 10
530
 20
750
 30
0
 11
280
 21
768.75
 31
0
 70
   32
 71
    5
  3
Standard
 53
0
210
0
220
0
230
1
100
AcDbAlignedDimension
 13
30
 23
680
 33
0
 14
530
 24
680
 34
0
100
AcDbRotatedDimension
  0
DIMENSION
  5
1C1
100
AcDbEntity
  8
Cotas
  6
ByLayer
 62
  256
370
   -1
100
AcDbDimension
  2
*D3
 10
470
 20
515
 30
0
 11
451.25
 21
582.5
 31
0
 70
   32
 71
    5
  3
Standard
 53
0
210
0
220
0
230
1
100
AcDbAlignedDimension
 13
530
 23
650
 33
0
 14
530
 24
515
 34
0
 50
90
100
AcDbRotatedDimension
  0
DIMENSION
  5
1C2
100
AcDbEntity
  8
Cotas
  6
ByLayer
 62
  256
370
   -1
100
AcDbDimension
  2
*D4
 10
30
 20
550
 30
0
 11
280
 21
568.75
 31
0
 70
   32
 71
    5
  3
Standard
 53
0
210
0
220
0
230
1
100
AcDbAlignedDimension
 13
530
 23
515
 33
0
 14
30
 24
515
 34
0
100
AcDbRotatedDimension
  0
DIMENSION
  5
1C3
100
AcDbEntity
  8
Cotas
  6
ByLayer
 62
  256
370
   -1
100
AcDbDimension
  2
*D5
 10
470
 20
355
 30
0
 11
451.25
 21
422.5
 31
0
 70
   32
 71
    5
  3
Standard
 53
0
210
0
220
0
230
1
100
AcDbAlignedDimension
 13
530
 23
490
 33
0
 14
530
 24
355
 34
0
 50
90
100
AcDbRotatedDimension
  0
DIMENSION
  5
1C4
100
AcDbEntity
  8
Cotas
  6
ByLayer
 62
  256
370
   -1
100
AcDbDimension
  2
*D6
 10
30
 20
390
 30
0
 11
280
 21
408.75
 31
0
 70
   32
 71
    5
  3
Standard
 53
0
210
0
220
0
230
1
100
AcDbAlignedDimension
 13
530
 23
355
 33
0
 14
30
 24
355
 34
0
100
AcDbRotatedDimension
  0
DIMENSION
  5
1C5
100
AcDbEntity
  8
Cotas
  6
ByLayer
 62
  256
370
   -1
100
AcDbDimension
  2
*D7
 10
530
 20
80
 30
0
 11
280
 21
98.75
 31
0
 70
   32
 71
    5
  3
Standard
 53
0
210
0
220
0
230
1
100
AcDbAlignedDimension
 13
30
 23
60
 33
0
 14
530
 24
60
 34
0
100
AcDbRotatedDimension
  0
DIMENSION
  5
1C6
100
AcDbEntity
  8
Cotas
  6
ByLayer
 62
  256
370
   -1
100
AcDbDimension
  2
*D8
 10
490
 20
60
 30
0
 11
471.25
 21
145
 31
0
 70
   32
 71
    5
  3
Standard
 53
0
210
0
220
0
230
1
100
AcDbAlignedDimension
 13
530
 23
230
 33
0
 14
530
 24
60
 34
0
 50
90
100
AcDbRotatedDimension
  0
DIMENSION
  5
1C7
100
AcDbEntity
  8
Cotas
  6
ByLayer
 62
  256
370
   -1
100
AcDbDimension
  2
*D9
 10
1060
 20
850
 30
0
 11
810
 21
868.75
 31
0
 70
   32
 71
    5
  3
Standard
 53
0
210
0
220
0
230
1
100
AcDbAlignedDimension
 13
560
 23
820
 33
0
 14
1060
 24
820
 34
0
100
AcDbRotatedDimension
  0
DIMENSION
  5
1C8
100
AcDbEntity
  8
Cotas
  6
ByLayer
 62
  256
370
   -1
100
AcDbDimension
  2
*D10
 10
1000
 20
1180
 30
0
 11
981.25
 21
1000
 31
0
 70
   32
 71
    5
  3
Standard
 53
0
210
0
220
0
230
1
100
AcDbAlignedDimension
 13
1060
 23
820
 33
0
 14
1060
 24
1180
 34
0
 50
90
100
AcDbRotatedDimension
  0
DIMENSION
  5
1C9
100
AcDbEntity
  8
Cotas
  6
ByLayer
 62
  256
370
   -1
100
AcDbDimension
  2
*D11
 10
1060
 20
620
 30
0
 11
810
 21
638.75
 31
0
 70
   32
 71
    5
  3
Standard
 53
0
210
0
220
0
230
1
100
AcDbAlignedDimension
 13
560
 23
590
 33
0
 14
1060
 24
590
 34
0
100
AcDbRotatedDimension
  0
LINE
  5
1CA
100
AcDbEntity
  8
0
  6
ByLayer
 62
  256
370
   -1
100
AcDbLine
 10
30
 20
650
 11
530
 21
650
  0
LINE
  5
1CB
100
AcDbEntity
  8
0
  6
ByLayer
 62
  256
370
   -1
100
AcDbLine
 10
530
 20
650
 11
530
 21
515
  0
LINE
  5
1CC
100
AcDbEntity
  8
0
  6
ByLayer
 62
  256
370
   -1
100
AcDbLine
 10
30
 20
515
 11
30
 21
650
  0
LINE
  5
1CD
100
AcDbEntity
  8
0
  6
ByLayer
 62
  256
370
   -1
100
AcDbLine
 10
30
 20
515
 11
530
 21
515
  0
MTEXT
  5
1CE
100
AcDbEntity
  8
0
  6
ByLayer
 62
  256
370
   -1
100
AcDbMText
 10
110
 20
640
 30
0
 40
40
 41
186.6666666666667
 71
    1
 72
    1
  1
ARRIBA
  7
standard
210
0
220
0
230
1
 50
0
 73
    2
 44
1
  0
LINE
  5
1CF
100
AcDbEntity
  8
0
  6
ByLayer
 62
  256
370
   -1
100
AcDbLine
 10
30
 20
490
 11
530
 21
490
  0
LINE
  5
1D0
100
AcDbEntity
  8
0
  6
ByLayer
 62
  256
370
   -1
100
AcDbLine
 10
530
 20
490
 11
530
 21
355
  0
LINE
  5
1D1
100
AcDbEntity
  8
0
  6
ByLayer
 62
  256
370
   -1
100
AcDbLine
 10
30
 20
355
 11
30
 21
490
  0
LINE
  5
1D2
100
AcDbEntity
  8
0
  6
ByLayer
 62
  256
370
   -1
100
AcDbLine
 10
30
 20
355
 11
530
 21
355
  0
MTEXT
  5
1D3
100
AcDbEntity
  8
0
  6
ByLayer
 62
  256
370
   -1
100
AcDbMText
 10
90
 20
480
 30
0
 40
35
 41
268.333325913258
 71
    1
 72
    1
  1
ALTAVOCES
  7
standard
210
0
220
0
230
1
 50
0
 73
    2
 44
1
  0
LINE
  5
1D4
100
AcDbEntity
  8
0
  6
ByLayer
 62
  256
370
   -1
100
AcDbLine
 10
30
 20
330
 11
530
 21
330
  0
LINE
  5
1D5
100
AcDbEntity
  8
0
  6
ByLayer
 62
  256
370
   -1
100
AcDbLine
 10
530
 20
330
 11
530
 21
260
  0
LINE
  5
1D6
100
AcDbEntity
  8
0
  6
ByLayer
 62
  256
370
   -1
100
AcDbLine
 10
530
 20
260
 11
30
 21
260
  0
LINE
  5
1D7
100
AcDbEntity
  8
0
  6
ByLayer
 62
  256
370
   -1
100
AcDbLine
 10
30
 20
260
 11
30
 21
330
  0
MTEXT
  5
1D8
100
AcDbEntity
  8
0
  6
ByLayer
 62
  256
370
   -1
100
AcDbMText
 10
60
 20
320
 30
0
 40
35
 41
384.0277777777799
 71
    1
 72
    1
  1
FRONTAL ABAJO
  7
standard
210
0
220
0
230
1
 50
0
 73
    2
 44
1
  0
LINE
  5
1D9
100
AcDbEntity
  8
0
  6
ByLayer
 62
  256
370
   -1
100
AcDbLine
 10
30
 20
230
 11
530
 21
230
  0
LINE
  5
1DA
100
AcDbEntity
  8
0
  6
ByLayer
 62
  256
370
   -1
100
AcDbLine
 10
530
 20
230
 11
530
 21
60
  0
LINE
  5
1DB
100
AcDbEntity
  8
0
  6
ByLayer
 62
  256
370
   -1
100
AcDbLine
 10
530
 20
60
 11
30
 21
60
  0
LINE
  5
1DC
100
AcDbEntity
  8
0
  6
ByLayer
 62
  256
370
   -1
100
AcDbLine
 10
30
 20
60
 11
30
 21
230
  0
MTEXT
  5
1DD
100
AcDbEntity
  8
0
  6
ByLayer
 62
  256
370
   -1
100
AcDbMText
 10
100
 20
190
 30
0
 40
35
 41
256.6666592465936
 71
    1
 72
    1
  1
CONTROLES
  7
standard
210
0
220
0
230
1
 50
0
 73
    2
 44
1
  0
LINE
  5
1DE
100
AcDbEntity
  8
0
  6
ByLayer
 62
  256
370
   -1
100
AcDbLine
 10
560
 20
1180
 11
1060
 21
1180
  0
LINE
  5
1DF
100
AcDbEntity
  8
0
  6
ByLayer
 62
  256
370
   -1
100
AcDbLine
 10
1060
 20
1180
 11
1060
 21
820
  0
LINE
  5
1E0
100
AcDbEntity
  8
0
  6
ByLayer
 62
  256
370
   -1
100
AcDbLine
 10
1060
 20
820
 11
560
 21
820
  0
LINE
  5
1E1
100
AcDbEntity
  8
0
  6
ByLayer
 62
  256
370
   -1
100
AcDbLine
 10
560
 20
820
 11
560
 21
1180
  0
MTEXT
  5
1E2
100
AcDbEntity
  8
0
  6
ByLayer
 62
  256
370
   -1
100
AcDbMText
 10
730
 20
1030
 30
0
 40
35
 41
112.7777703577025
 71
    1
 72
    1
  1
BASE
  7
standard
210
0
220
0
230
1
 50
0
 73
    2
 44
1
  0
LINE
  5
1E3
100
AcDbEntity
  8
0
  6
ByLayer
 62
  256
370
   -1
100
AcDbLine
 10
560
 20
790
 11
1060
 21
790
  0
LINE
  5
1E4
100
AcDbEntity
  8
0
  6
ByLayer
 62
  256
370
   -1
100
AcDbLine
 10
1060
 20
790
 11
1060
 21
590
  0
LINE
  5
1E5
100
AcDbEntity
  8
0
  6
ByLayer
 62
  256
370
   -1
100
AcDbLine
 10
1060
 20
590
 11
560
 21
590
  0
LINE
  5
1E6
100
AcDbEntity
  8
0
  6
ByLayer
 62
  256
370
   -1
100
AcDbLine
 10
560
 20
590
 11
560
 21
790
  0
MTEXT
  5
1E7
100
AcDbEntity
  8
0
  6
ByLayer
 62
  256
370
   -1
100
AcDbMText
 10
680
 20
720
 30
0
 40
35
 41
190.5555555555556
 71
    1
 72
    1
  1
MONITOR
  7
standard
210
0
220
0
230
1
 50
0
 73
    2
 44
1
  0
LINE
  5
1E8
100
AcDbEntity
  8
0
  6
ByLayer
 62
  256
370
   -1
100
AcDbLine
 10
1090
 20
670
 11
1225.9461629
 21
606.607263142
  0
DIMENSION
  5
1E9
100
AcDbEntity
  8
Cotas
  6
ByLayer
 62
  256
370
   -1
100
AcDbDimension
  2
*D12
 10
1090
 20
1280
 30
0
 11
1290
 21
1298.75
 31
0
 70
   32
 71
    5
 72
    0
  3
Standard
 53
0
210
0
220
0
230
1
100
AcDbAlignedDimension
 13
1490
 23
1180
 33
0
 14
1090
 24
1180
 34
0
 50
180
100
AcDbRotatedDimension
  0
DIMENSION
  5
1EA
100
AcDbEntity
  8
Cotas
  6
ByLayer
 62
  256
370
   -1
100
AcDbDimension
  2
*D13
 10
1078.767431667815
 20
645.9116794760191
 30
0
 11
1159.196147040314
 21
629.0954895435209
 31
0
 70
   33
 71
    5
 72
    0
  3
Standard
 53
0
210
0
220
0
230
1
100
AcDbAlignedDimension
 13
1235.00924593
 23
602.381078121
 33
0
 14
1090
 24
670
 34
0
  0
DIMENSION
  5
1EB
100
AcDbEntity
  8
Cotas
  6
ByLayer
 62
  256
370
   -1
100
AcDbDimension
  2
*D14
 10
1313.65328755
 20
709.279613107
 30
0
 11
1269.164635002314
 21
658.2395819835225
 31
0
 70
   33
 71
    5
 72
    0
  3
Standard
 53
0
210
0
220
0
230
1
100
AcDbAlignedDimension
 13
1235.00924593
 23
602.381078121
 33
0
 14
1290
 24
720.3093058579999
 34
0
  0
DIMENSION
  5
1EC
100
AcDbEntity
  8
Cotas
  6
ByLayer
 62
  256
370
   -1
100
AcDbDimension
  2
*D15
 10
1590
 20
1180
 30
0
 11
1571.25
 21
1115
 31
0
 70
   32
 71
    5
 72
    0
  3
Standard
 53
0
210
0
220
0
230
1
100
AcDbAlignedDimension
 13
1450
 23
1050
 33
0
 14
1450
 24
1180
 34
0
 50
270
100
AcDbRotatedDimension
  0
DIMENSION
  5
1ED
100
AcDbEntity
  8
Cotas
  6
ByLayer
 62
  256
370
   -1
100
AcDbDimension
  2
*D16
 10
1540
 20
1180
 30
0
 11
1521.25
 21
1120
 31
0
 70
   32
 71
    5
 72
    0
  3
Standard
 53
0
210
0
220
0
230
1
100
AcDbAlignedDimension
 13
1522.15390309
 23
1060
 33
0
 14
1522.15390309
 24
1180
 34
0
 50
270
100
AcDbRotatedDimension
  0
DIMENSION
  5
1EE
100
AcDbEntity
  8
Cotas
  6
ByLayer
 62
  256
370
   -1
100
AcDbDimension
  2
*D17
 10
1650
 20
1180
 30
0
 11
1631.25
 21
1095
 31
0
 70
   32
 71
    5
 72
    0
  3
Standard
 53
0
210
0
220
0
230
1
100
AcDbAlignedDimension
 13
1350
 23
1010
 33
0
 14
1350
 24
1180
 34
0
 50
270
100
AcDbRotatedDimension
  0
DIMENSION
  5
1EF
100
AcDbEntity
  8
Cotas
  6
ByLayer
 62
  256
370
   -1
100
AcDbDimension
  2
*D18
 10
1090
 20
1339.0793238
 30
0
 11
1306.076951545
 21
1357.8293238
 31
0
 70
   32
 71
    5
 72
    0
  3
Standard
 53
0
210
0
220
0
230
1
100
AcDbAlignedDimension
 13
1522.15390309
 23
1060
 33
0
 14
1090
 24
1060
 34
0
 50
180
100
AcDbRotatedDimension
  0
LINE
  5
1F0
100
AcDbEntity
  8
0
  6
ByLayer
 62
  256
370
   -1
100
AcDbLine
 10
1239.23542579
 20
611.444163548
 11
1288.15525067
 21
716.353222276
  0
ARC
  5
1F1
100
AcDbEntity
  8
0
  6
ByLayer
 62
  256
370
   -1
100
AcDbCircle
 10
1532.04113487
 20
821.237232212
 40
262.241028995
100
AcDbArc
 50
133.961502239
 51
201.699455195
  0
ARC
  5
1F2
100
AcDbEntity
  8
0
  6
ByLayer
 62
  256
370
   -1
100
AcDbCircle
 10
1537.01491492
 20
687.4627126990001
 40
372.8335823150001
100
AcDbArc
 50
94.149830925
 51
120.106194179
  0
LINE
  5
1F3
100
AcDbEntity
  8
0
  6
ByLayer
 62
  256
370
   -1
100
AcDbLine
 10
1491.98598838
 20
1172.58819045
 11
1518.97045733
 21
1071.88078134
  0
LINE
  5
1F4
100
AcDbEntity
  8
0
  6
ByLayer
 62
  256
370
   -1
100
AcDbLine
 10
1090
 20
1170
 11
1090
 21
680
  0
ARC
  5
1F5
100
AcDbEntity
  8
0
  6
ByLayer
 62
  256
370
   -1
100
AcDbCircle
 10
1230.17234552
 20
615.670341012
 40
10
100
AcDbArc
 50
245
 51
335.000032577
  0
ARC
  5
1F6
100
AcDbEntity
  8
0
  6
ByLayer
 62
  256
370
   -1
100
AcDbCircle
 10
1279.09217039
 20
720.5793997400001
 40
10
100
AcDbArc
 50
335.000032577
 51
21.6994551952
  0
ARC
  5
1F7
100
AcDbEntity
  8
0
  6
ByLayer
 62
  256
370
   -1
100
AcDbCircle
 10
1509.31119906
 20
1069.29259089
 40
10
100
AcDbArc
 50
274.149830925
 51
15
  0
ARC
  5
1F8
100
AcDbEntity
  8
0
  6
ByLayer
 62
  256
370
   -1
100
AcDbCircle
 10
1100
 20
1170
 40
10
100
AcDbArc
 50
90
 51
180
  0
LINE
  5
1F9
100
AcDbEntity
  8
0
  6
ByLayer
 62
  256
370
   -1
100
AcDbLine
 10
1482.32673012
 20
1180
 11
1100
 21
1180
  0
ARC
  5
1FA
100
AcDbEntity
  8
0
  6
ByLayer
 62
  256
370
   -1
100
AcDbCircle
 10
1482.32673012
 20
1170
 40
10
100
AcDbArc
 50
15
 51
90
  0
DIMENSION
  5
1FB
100
AcDbEntity
  8
Cotas
  6
ByLayer
 62
  256
370
   -1
100
AcDbDimension
  2
*D19
 10
1141.18192814
 20
1160.4514166
 30
0
 11
1122.43192814
 21
925
 31
0
 70
   32
 71
    5
 72
    0
  3
Standard
 53
0
210
0
220
0
230
1
100
AcDbAlignedDimension
 13
1090
 23
670
 33
0
 14
1090
 24
1180
 34
0
 50
270
100
AcDbRotatedDimension
  0
LINE
  5
1FC
100
AcDbEntity
  8
0
  6
ByLayer
 62
  256
370
   -1
100
AcDbLine
 10
1090
 20
680
 11
1090
 21
670
  0
LINE
  5
1FD
100
AcDbEntity
  8
Cotas
  6
ByLayer
 62
  256
370
   -1
100
AcDbLine
 10
1510.03484812
 20
889.318808652
 11
1510.03484812
 21
899.318808652
  0
LINE
  5
1FE
100
AcDbEntity
  8
0
  6
ByLayer
 62
  256
370
   -1
100
AcDbLine
 10
1510.03484812
 20
899.318808652
 11
1374.08868006
 21
962.711547913
  0
DIMENSION
  5
1FF
100
AcDbEntity
  8
Cotas
  6
ByLayer
 62
  256
370
   -1
100
AcDbDimension
  2
*D20
 10
1521.267416452432
 20
923.407129176866
 30
0
 11
1456.686885894835
 21
974.2098611229127
 31
0
 70
   33
 71
    5
 72
    0
  3
Standard
 53
0
210
0
220
0
230
1
100
AcDbAlignedDimension
 13
1365.02560219
 23
966.93773053
 33
0
 14
1510.03484812
 24
899.318808652
 34
0
  0
DIMENSION
  5
200
100
AcDbEntity
  8
Cotas
  6
ByLayer
 62
  256
370
   -1
100
AcDbDimension
  2
*D21
 10
1286.381560559907
 20
860.0391955498
 30
0
 11
1296.883662082247
 21
926.9273921628775
 31
0
 70
   33
 71
    5
 72
    0
  3
Standard
 53
0
210
0
220
0
230
1
100
AcDbAlignedDimension
 13
1365.02560219
 23
966.93773053
 33
0
 14
1310.03484812
 24
849.0095027940001
 34
0
  0
DIMENSION
  5
201
100
AcDbEntity
  8
Cotas
  6
ByLayer
 62
  256
370
   -1
100
AcDbDimension
  2
*D22
 10
950.034848115
 20
389.318808652
 30
0
 11
931.284848115
 21
474.318808652
 31
0
 70
   32
 71
    5
 72
    0
  3
Standard
 53
0
210
0
220
0
230
1
100
AcDbAlignedDimension
 13
1250.03484812
 23
559.318808652
 33
0
 14
1250.03484812
 24
389.318808652
 34
0
 50
90
100
AcDbRotatedDimension
  0
LINE
  5
202
100
AcDbEntity
  8
0
  6
ByLayer
 62
  256
370
   -1
100
AcDbLine
 10
1360.79942232
 20
957.874645104
 11
1311.87959745
 21
852.965586376
  0
ARC
  5
203
100
AcDbEntity
  8
0
  6
ByLayer
 62
  256
370
   -1
100
AcDbCircle
 10
1067.99371324
 20
748.08157644
 40
262.241028995
100
AcDbArc
 50
313.961502239
 51
21.6994551952
  0
ARC
  5
204
100
AcDbEntity
  8
0
  6
ByLayer
 62
  256
370
   -1
100
AcDbCircle
 10
1063.01993319
 20
881.8560959529999
 40
372.8335823150001
100
AcDbArc
 50
274.149830925
 51
300.106194179
  0
LINE
  5
205
100
AcDbEntity
  8
0
  6
ByLayer
 62
  256
370
   -1
100
AcDbLine
 10
1108.04885973
 20
396.730618201
 11
1081.06439079
 21
497.438027315
  0
ARC
  5
206
100
AcDbEntity
  8
0
  6
ByLayer
 62
  256
370
   -1
100
AcDbCircle
 10
1090.72364905
 20
500.026217766
 40
10
100
AcDbArc
 50
94.149830925
 51
195
  0
ARC
  5
207
100
AcDbEntity
  8
0
  6
ByLayer
 62
  256
370
   -1
100
AcDbCircle
 10
1117.708118
 20
399.318808652
 40
10
100
AcDbArc
 50
195
 51
270
  0
ARC
  5
208
100
AcDbEntity
  8
0
  6
ByLayer
 62
  256
370
   -1
100
AcDbCircle
 10
1500.03484812
 20
399.318808652
 40
10
100
AcDbArc
 50
270
 51
0
  0
LINE
  5
209
100
AcDbEntity
  8
0
  6
ByLayer
 62
  256
370
   -1
100
AcDbLine
 10
1117.708118
 20
389.318808652
 11
1500.03484812
 21
389.318808652
  0
DIMENSION
  5
20A
100
AcDbEntity
  8
Cotas
  6
ByLayer
 62
  256
370
   -1
100
AcDbDimension
  2
*D23
 10
1550
 20
570
 30
0
 11
1531.25
 21
644.3188086519999
 31
0
 70
   32
 71
    5
 72
    0
  3
Standard
 53
0
210
0
220
0
230
1
100
AcDbAlignedDimension
 13
1510.03484812
 23
899.318808652
 33
0
 14
1510.03484812
 24
389.318808652
 34
0
 50
90
100
AcDbRotatedDimension
  0
ARC
  5
20B
100
AcDbEntity
  8
0
  6
ByLayer
 62
  256
370
   -1
100
AcDbCircle
 10
1320.94267772
 20
848.7394089119999
 40
10
100
AcDbArc
 50
155.000032577
 51
201.699455195
  0
DIMENSION
  5
20C
100
AcDbEntity
  8
Cotas
  6
ByLayer
 62
  256
370
   -1
100
AcDbDimension
  2
*D24
 10
1490
 20
280
 30
0
 11
1293.95789657
 21
298.75
 31
0
 70
   32
 71
    5
 72
    0
  3
Standard
 53
0
210
0
220
0
230
1
100
AcDbAlignedDimension
 13
1077.88094502
 23
509.318808652
 33
0
 14
1510.03484812
 24
509.318808652
 34
0
100
AcDbRotatedDimension
  0
DIMENSION
  5
20D
100
AcDbEntity
  8
Cotas
  6
ByLayer
 62
  256
370
   -1
100
AcDbDimension
  2
*D25
 10
1240
 20
350
 30
0
 11
1310.03484812
 21
368.75
 31
0
 70
   32
 71
    5
 72
    0
  3
Standard
 53
0
210
0
220
0
230
1
100
AcDbAlignedDimension
 13
1110.03484812
 23
389.318808652
 33
0
 14
1510.03484812
 24
389.318808652
 34
0
100
AcDbRotatedDimension
  0
LINE
  5
20E
100
AcDbEntity
  8
0
  6
ByLayer
 62
  256
370
   -1
100
AcDbLine
 10
1510.03484812
 20
399.318808652
 11
1510.03484812
 21
899.318808652
  0
ARC
  5
20F
100
AcDbEntity
  8
0
  6
ByLayer
 62
  256
370
   -1
100
AcDbCircle
 10
1369.86249744
 20
953.6484700430001
 40
10
100
AcDbArc
 50
65
 51
155.000032577
  0
LINE
  5
210
100
AcDbEntity
  8
0
  6
ByLayer
 62
  256
370
   -1
100
AcDbLine
 10
2530
 20
1180
 11
3030
 21
1180
  0
LINE
  5
211
100
AcDbEntity
  8
0
  6
ByLayer
 62
  256
370
   -1
100
AcDbLine
 10
3030
 20
1180
 11
3030
 21
1010
  0
LINE
  5
212
100
AcDbEntity
  8
0
  6
ByLayer
 62
  256
370
   -1
100
AcDbLine
 10
3030
 20
1010
 11
2530
 21
1010
  0
LINE
  5
213
100
AcDbEntity
  8
0
  6
ByLayer
 62
  256
370
   -1
100
AcDbLine
 10
2530
 20
1010
 11
2530
 21
1180
  0
LINE
  5
214
100
AcDbEntity
  8
0
  6
ByLayer
 62
  256
370
   -1
100
AcDbLine
 10
2530
 20
970
 11
3030
 21
970
  0
LINE
  5
215
100
AcDbEntity
  8
0
  6
ByLayer
 62
  256
370
   -1
100
AcDbLine
 10
3030
 20
970
 11
3030
 21
610
  0
LINE
  5
216
100
AcDbEntity
  8
0
  6
ByLayer
 62
  256
370
   -1
100
AcDbLine
 10
3030
 20
610
 11
2530
 21
610
  0
LINE
  5
217
100
AcDbEntity
  8
0
  6
ByLayer
 62
  256
370
   -1
100
AcDbLine
 10
2530
 20
610
 11
2530
 21
970
  0
LINE
  5
218
100
AcDbEntity
  8
0
  6
ByLayer
 62
  256
370
   -1
100
AcDbLine
 10
2530
 20
570
 11
3030
 21
570
  0
LINE
  5
219
100
AcDbEntity
  8
0
  6
ByLayer
 62
  256
370
   -1
100
AcDbLine
 10
3030
 20
570
 11
3030
 21
500
  0
LINE
  5
21A
100
AcDbEntity
  8
0
  6
ByLayer
 62
  256
370
   -1
100
AcDbLine
 10
3030
 20
500
 11
2530
 21
500
  0
LINE
  5
21B
100
AcDbEntity
  8
0
  6
ByLayer
 62
  256
370
   -1
100
AcDbLine
 10
2530
 20
500
 11
2530
 21
570
  0
MTEXT
  5
21C
100
AcDbEntity
  8
0
  6
ByLayer
 62
  256
370
   -1
100
AcDbMText
 10
2750
 20
1150
 30
0
 40
35
 41
77.77777777777995
 71
    1
 72
    1
  1
CPO
  7
standard
210
0
220
0
230
1
 50
0
 73
    2
 44
1
  0
MTEXT
  5
21D
100
AcDbEntity
  8
0
  6
ByLayer
 62
  256
370
   -1
100
AcDbMText
 10
2680
 20
820
 30
0
 40
35
 41
241.1111111111111
 71
    1
 72
    1
  1
PANTALLA\P
  7
standard
210
0
220
0
230
1
 50
0
 73
    2
 44
1
  0
MTEXT
  5
21E
100
AcDbEntity
  8
0
  6
ByLayer
 62
  256
370
   -1
100
AcDbMText
 10
2650
 20
560
 30
0
 40
35
 41
291.6666592465915
 71
    1
 72
    1
  1
MARQUESINA
  7
standard
210
0
220
0
230
1
 50
0
 73
    2
 44
1
  0
MTEXT
  5
21F
100
AcDbEntity
  8
0
  6
ByLayer
 62
  256
370
   -1
100
AcDbMText
 10
2000
 20
100
 30
0
 40
35
 41
387.9166666666709
 71
    1
 72
    1
  1
MDF 244X122X16
  7
standard
210
0
220
0
230
1
 50
0
 73
    2
 44
1
  0
LINE
  5
220
100
AcDbEntity
  8
0
  6
ByLayer
 62
  256
370
   -1
100
AcDbLine
 10
2500
 20
1220
 11
3060
 21
1220
  0
LINE
  5
221
100
AcDbEntity
  8
0
  6
ByLayer
 62
  256
370
   -1
100
AcDbLine
 10
3060
 20
1220
 11
3060
 21
300
  0
LINE
  5
222
100
AcDbEntity
  8
0
  6
ByLayer
 62
  256
370
   -1
100
AcDbLine
 10
3060
 20
300
 11
2500
 21
300
  0
LINE
  5
223
100
AcDbEntity
  8
0
  6
ByLayer
 62
  256
370
   -1
100
AcDbLine
 10
2500
 20
300
 11
2500
 21
1220
  0
DIMENSION
  5
224
100
AcDbEntity
  8
Cotas
  6
ByLayer
 62
  256
370
   -1
100
AcDbDimension
  2
*D26
 10
2530
 20
1040
 30
0
 11
2780
 21
1058.75
 31
0
 70
   32
 71
    5
  3
Standard
 53
0
210
0
220
0
230
1
100
AcDbAlignedDimension
 13
3030
 23
1010
 33
0
 14
2530
 24
1010
 34
0
100
AcDbRotatedDimension
  0
DIMENSION
  5
225
100
AcDbEntity
  8
Cotas
  6
ByLayer
 62
  256
370
   -1
100
AcDbDimension
  2
*D27
 10
2590
 20
610
 30
0
 11
2571.25
 21
790
 31
0
 70
   32
 71
    5
  3
Standard
 53
0
210
0
220
0
230
1
100
AcDbAlignedDimension
 13
2530
 23
970
 33
0
 14
2530
 24
610
 34
0
 50
90
100
AcDbRotatedDimension
  0
DIMENSION
  5
226
100
AcDbEntity
  8
Cotas
  6
ByLayer
 62
  256
370
   -1
100
AcDbDimension
  2
*D28
 10
2530
 20
650
 30
0
 11
2780
 21
668.75
 31
0
 70
   32
 71
    5
  3
Standard
 53
0
210
0
220
0
230
1
100
AcDbAlignedDimension
 13
3030
 23
610
 33
0
 14
2530
 24
610
 34
0
100
AcDbRotatedDimension
  0
DIMENSION
  5
227
100
AcDbEntity
  8
Cotas
  6
ByLayer
 62
  256
370
   -1
100
AcDbDimension
  2
*D29
 10
2570
 20
500
 30
0
 11
2551.25
 21
535
 31
0
 70
   32
 71
    5
  3
Standard
 53
0
210
0
220
0
230
1
100
AcDbAlignedDimension
 13
2530
 23
570
 33
0
 14
2530
 24
500
 34
0
 50
90
100
AcDbRotatedDimension
  0
DIMENSION
  5
228
100
AcDbEntity
  8
Cotas
  6
ByLayer
 62
  256
370
   -1
100
AcDbDimension
  2
*D30
 10
2570
 20
1010
 30
0
 11
2551.25
 21
1095
 31
0
 70
   32
 71
    5
  3
Standard
 53
0
210
0
220
0
230
1
100
AcDbAlignedDimension
 13
2530
 23
1180
 33
0
 14
2530
 24
1010
 34
0
 50
90
100
AcDbRotatedDimension
  0
DIMENSION
  5
229
100
AcDbEntity
  8
Cotas
  6
ByLayer
 62
  256
370
   -1
100
AcDbDimension
  2
*D31
 10
1010.03484812
 20
389.318808652
 30
0
 11
991.28484812
 21
454.318808652
 31
0
 70
   32
 71
    5
 72
    0
  3
Standard
 53
0
210
0
220
0
230
1
100
AcDbAlignedDimension
 13
1150.03484812
 23
519.318808652
 33
0
 14
1150.03484812
 24
389.318808652
 34
0
 50
90
100
AcDbRotatedDimension
  0
DIMENSION
  5
22A
100
AcDbEntity
  8
Cotas
  6
ByLayer
 62
  256
370
   -1
100
AcDbDimension
  2
*D32
 10
1020
 20
590
 30
0
 11
1001.25
 21
690
 31
0
 70
   32
 71
    5
  3
Standard
 53
0
210
0
220
0
230
1
100
AcDbAlignedDimension
 13
1060
 23
790
 33
0
 14
1060
 24
590
 34
0
 50
90
100
AcDbRotatedDimension
  0
DIMENSION
  5
22B
100
AcDbEntity
  8
Cotas
  6
ByLayer
 62
  256
370
   -1
100
AcDbDimension
  2
*D33
 10
100
 20
680
 30
0
 11
81.25
 21
930
 31
0
 70
   32
 71
    5
  3
Standard
 53
0
210
0
220
0
230
1
100
AcDbAlignedDimension
 13
30
 23
1180
 33
0
 14
30
 24
680
 34
0
 50
90
100
AcDbRotatedDimension
  0
DIMENSION
  5
22C
100
AcDbEntity
  8
Cotas
  6
ByLayer
 62
  256
370
   -1
100
AcDbDimension
  2
*D34
 10
530
 20
270
 30
0
 11
280
 21
288.75
 31
0
 70
   32
 71
    5
  3
Standard
 53
0
210
0
220
0
230
1
100
AcDbAlignedDimension
 13
30
 23
260
 33
0
 14
530
 24
260
 34
0
100
AcDbRotatedDimension
  0
DIMENSION
  5
22D
100
AcDbEntity
  8
Cotas
  6
ByLayer
 62
  256
370
   -1
100
AcDbDimension
  2
*D35
 10
480
 20
260
 30
0
 11
461.25
 21
295
 31
0
 70
   32
 71
    5
  3
Standard
 53
0
210
0
220
0
230
1
100
AcDbAlignedDimension
 13
530
 23
330
 33
0
 14
530
 24
260
 34
0
 50
90
100
AcDbRotatedDimension
  0
DIMENSION
  5
22E
100
AcDbEntity
  8
Cotas
  6
ByLayer
 62
  256
370
   -1
100
AcDbDimension
  2
*D36
 10
1060.03484812
 20
389.318808652
 30
0
 11
1041.28484812
 21
449.318808652
 31
0
 70
   32
 71
    5
 72
    0
  3
Standard
 53
0
210
0
220
0
230
1
100
AcDbAlignedDimension
 13
1077.88094502
 23
509.318808652
 33
0
 14
1077.88094502
 24
389.318808652
 34
0
 50
90
100
AcDbRotatedDimension
  0
DIMENSION
  5
22F
100
AcDbEntity
  8
Cotas
  6
ByLayer
 62
  256
370
   -1
100
AcDbDimension
  2
*D37
 10
2449.751295896202
 20
1404.341015101425
 30
0
 11
1220
 21
1423.091015101425
 31
0
 70
   32
 71
    5
  3
Standard
 53
0
210
0
220
0
230
1
100
AcDbAlignedDimension
 13
0
 23
1220
 33
0
 14
2440
 24
1220
 34
0
100
AcDbRotatedDimension
  0
DIMENSION
  5
230
100
AcDbEntity
  8
Cotas
  6
ByLayer
 62
  256
370
   -1
100
AcDbDimension
  2
*D38
 10
3030
 20
460
 30
0
 11
2780
 21
480
 31
0
 70
   32
 71
    5
  3
Standard
 53
0
210
0
220
0
230
1
100
AcDbAlignedDimension
 13
2530
 23
440
 33
0
 14
3030
 24
440
 34
0
100
AcDbRotatedDimension
  0
LINE
  5
231
100
AcDbEntity
  8
0
  6
ByLayer
 62
  256
370
   -1
100
AcDbLine
 10
2528.333333333333
 20
435
 11
3028.333333333333
 21
435
  0
LINE
  5
232
100
AcDbEntity
  8
0
  6
ByLayer
 62
  256
370
   -1
100
AcDbLine
 10
3028.333333333333
 20
435
 11
3028.333333333333
 21
365
  0
LINE
  5
233
100
AcDbEntity
  8
0
  6
ByLayer
 62
  256
370
   -1
100
AcDbLine
 10
3028.333333333333
 20
365
 11
2528.333333333333
 21
365
  0
LINE
  5
234
100
AcDbEntity
  8
0
  6
ByLayer
 62
  256
370
   -1
100
AcDbLine
 10
2528.333333333333
 20
365
 11
2528.333333333333
 21
435
  0
MTEXT
  5
235
100
AcDbEntity
  8
0
  6
ByLayer
 62
  256
370
   -1
100
AcDbMText
 10
2558.333333333333
 20
425
 30
0
 40
35
 41
384.0277777777799
 71
    1
 72
    1
  1
FRONTAL ABAJO
  7
standard
210
0
220
0
230
1
 50
0
 73
    2
 44
1
  0
DIMENSION
  5
236
100
AcDbEntity
  8
Cotas
  6
ByLayer
 62
  256
370
   -1
100
AcDbDimension
  2
*D39
 10
2978.333333333333
 20
365
 30
0
 11
2959.583333333333
 21
400
 31
0
 70
   32
 71
    5
  3
Standard
 53
0
210
0
220
0
230
1
100
AcDbAlignedDimension
 13
3028.333333333333
 23
435
 33
0
 14
3028.333333333333
 24
365
 34
0
 50
90
100
AcDbRotatedDimension
  0
DIMENSION
  5
237
100
AcDbEntity
  8
Cotas
  6
ByLayer
 62
  256
370
   -1
100
AcDbDimension
  2
*D40
 10
3028.333333333333
 20
316.25
 30
0
 11
2778.333333333333
 21
335
 31
0
 70
   32
 71
    5
  3
Standard
 53
0
210
0
220
0
230
1
100
AcDbAlignedDimension
 13
2528.333333333333
 23
306.25
 33
0
 14
3028.333333333333
 24
306.25
 34
0
100
AcDbRotatedDimension
  0
MTEXT
  5
238
100
AcDbEntity
  8
0
  6
ByLayer
 62
  256
370
   -1
100
AcDbMText
 10
2706.666666666667
 20
235
 30
0
 40
35
 41
332.5000102222775
 71
    1
 72
    1
  1
METACRILATO \P(Grosor 4 mm)
  7
standard
210
0
220
0
230
1
 50
0
 73
    2
 44
1
  0
ENDSEC
  0
SECTION
  2
OBJECTS
  0
DICTIONARY
  5
C
330
0
100
AcDbDictionary
281
    1
  3
ACAD_GROUP
350
D
  0
DICTIONARY
  5
D
330
C
100
AcDbDictionary
281
    1
  0
ENDSEC
  0
EOF
